<?xml version="1.0" standalone="no"?>
<!DOCTYPE svg PUBLIC "-//W3C//DTD SVG 20010904//EN"
 "http://www.w3.org/TR/2001/REC-SVG-20010904/DTD/svg10.dtd">
<svg version="1.0" xmlns="http://www.w3.org/2000/svg"
 width="400.000000pt" height="400.000000pt" viewBox="0 0 400.000000 400.000000"
 preserveAspectRatio="xMidYMid meet">
<metadata>
Created by potrace 1.11, written by Peter Selinger 2001-2013
</metadata>
<g transform="translate(0.000000,400.000000) scale(0.100000,-0.100000)"
fill="#000000" stroke="none">
<path d="M1780 3989 c-371 -42 -748 -200 -1040 -436 -89 -72 -257 -243 -321
-328 -271 -354 -419 -788 -419 -1225 0 -453 161 -905 447 -1260 72 -89 243
-257 328 -321 354 -271 788 -419 1225 -419 437 0 871 148 1225 419 85 64 256
232 328 321 488 604 584 1429 247 2128 -99 205 -203 353 -365 521 -173 179
-347 305 -566 411 -338 162 -726 230 -1089 189z m472 -64 c642 -85 1199 -482
1487 -1061 270 -543 270 -1185 -1 -1728 -252 -507 -727 -889 -1270 -1021 -966
-235 -1946 286 -2292 1217 -155 416 -155 920 0 1336 251 676 852 1160 1563
1257 132 18 377 18 513 0z"/>
<path d="M1848 3919 c-453 -35 -884 -234 -1208 -559 -271 -270 -449 -602 -525
-975 -129 -636 67 -1287 525 -1745 458 -458 1109 -654 1745 -525 373 76 705
254 975 525 458 458 654 1109 525 1745 -76 373 -254 705 -525 975 -332 332
-752 523 -1230 560 -74 5 -144 9 -155 9 -11 -1 -68 -6 -127 -10z m253 -25 l95
-7 -4 -27 c-3 -21 1 -28 16 -33 25 -6 32 0 32 25 0 10 -7 18 -17 18 -9 0 -13
3 -10 7 4 3 45 1 91 -6 84 -13 85 -13 75 -38 -12 -32 -12 -30 13 -36 22 -6 38
6 38 30 0 6 -8 14 -17 16 -15 4 -15 5 2 5 29 1 105 -26 79 -27 -29 -1 -39 -38
-13 -46 25 -8 39 2 39 27 0 25 13 22 150 -29 452 -169 835 -523 1045 -965 49
-104 120 -308 129 -373 3 -22 3 -32 0 -22 -11 34 -57 14 -47 -21 6 -25 4 -25
36 -13 25 10 25 9 38 -75 7 -46 9 -87 6 -91 -4 -3 -7 1 -7 10 0 10 -8 17 -18
17 -25 0 -31 -7 -25 -32 5 -15 12 -19 33 -16 l27 4 7 -105 c17 -279 -53 -633
-179 -899 -187 -394 -515 -722 -905 -906 -111 -52 -268 -109 -284 -102 -6 2
-3 5 7 5 18 1 22 18 8 40 -5 8 -16 11 -30 6 -23 -7 -26 -17 -11 -45 9 -17 3
-20 -58 -34 -185 -41 -382 -60 -537 -50 -60 4 -104 9 -97 11 6 3 12 16 12 29
0 19 -5 24 -25 24 -18 0 -25 -5 -25 -19 0 -11 6 -22 13 -24 6 -3 -5 -6 -26 -6
-35 -1 -37 0 -31 25 4 17 2 29 -7 35 -25 15 -39 10 -39 -16 0 -17 6 -25 17
-25 9 0 14 -3 11 -6 -4 -3 -27 -2 -52 1 -40 6 -43 9 -31 22 22 22 18 40 -10
45 -18 4 -26 0 -31 -15 -4 -11 -1 -23 7 -29 26 -18 -63 3 -184 43 -541 177
-982 599 -1180 1129 -37 98 -55 164 -40 144 14 -20 52 1 46 25 -6 25 -38 28
-51 4 -10 -17 -26 39 -51 181 -11 60 -14 122 -4 99 2 -7 13 -13 24 -13 14 0
19 7 19 25 0 20 -5 25 -24 25 -13 0 -26 -6 -29 -12 -2 -7 -7 37 -11 97 -10
155 9 352 50 537 14 61 17 67 34 58 28 -15 38 -12 45 11 5 14 2 25 -6 30 -22
14 -39 10 -40 -8 0 -10 -3 -13 -5 -7 -7 16 50 173 102 284 184 390 512 718
906 905 144 68 412 153 407 129 -5 -30 3 -44 26 -44 20 0 25 5 25 25 0 19 -5
25 -22 26 -19 1 -17 3 7 9 44 11 83 12 67 1 -14 -8 -13 -43 1 -42 4 1 16 1 26
1 15 0 18 5 13 23 -3 12 -10 25 -16 29 -6 4 6 8 27 8 21 0 36 -4 33 -9 -11
-18 6 -41 30 -41 32 0 34 39 2 48 -15 5 1 9 47 13 113 9 135 9 236 3z"/>
<path d="M1880 3860 c0 -15 7 -20 25 -20 18 0 25 5 25 20 0 15 -7 20 -25 20
-18 0 -25 -5 -25 -20z"/>
<path d="M2282 3838 c4 -30 43 -37 51 -9 6 25 0 31 -30 31 -20 0 -24 -5 -21
-22z"/>
<path d="M1547 3833 c-11 -3 -16 -10 -13 -20 3 -8 6 -19 6 -24 0 -9 37 -3 48
6 6 6 -9 45 -16 44 -4 -1 -15 -3 -25 -6z"/>
<path d="M1963 3815 c-3 -9 -3 -29 0 -45 8 -36 2 -37 -118 -42 l-90 -3 -5 40
c-4 32 -9 40 -25 40 -18 0 -20 -6 -17 -48 4 -46 3 -48 -20 -45 -17 2 -24 10
-26 31 -3 23 -8 28 -25 25 -19 -3 -22 -8 -19 -40 5 -52 -23 -53 -33 -1 -9 49
-11 52 -35 46 -13 -4 -19 -11 -16 -22 20 -65 19 -70 -10 -82 -16 -6 -41 -13
-55 -16 -24 -4 -28 -1 -34 26 -7 33 -12 36 -34 22 -11 -7 -11 -15 -3 -39 9
-27 8 -32 -9 -37 -11 -4 -22 -5 -23 -3 -1 1 -7 16 -14 31 -10 24 -15 26 -32
17 -19 -10 -19 -13 -5 -39 13 -26 13 -30 -2 -35 -19 -8 -17 -10 -36 37 -17 38
-23 42 -45 28 -12 -7 -11 -14 2 -39 23 -45 20 -56 -21 -76 -119 -56 -294 -180
-409 -288 -50 -48 -51 -48 -69 -28 -10 11 -24 20 -31 20 -24 0 -26 -22 -4 -45
19 -20 21 -27 10 -40 -11 -13 -15 -12 -38 5 -23 19 -27 19 -41 5 -15 -15 -14
-18 12 -37 22 -16 25 -23 16 -34 -10 -12 -17 -10 -46 12 -29 22 -36 24 -50 13
-13 -12 -11 -17 20 -44 l36 -30 -58 -87 -58 -86 -63 39 c-34 22 -63 39 -65 37
-1 -2 -7 -13 -14 -25 -9 -19 -8 -23 11 -29 15 -4 26 -1 35 12 13 18 14 17 8
-6 -5 -22 -1 -28 29 -43 38 -18 41 -23 27 -46 -8 -12 -14 -13 -36 -3 -21 10
-31 10 -41 1 -21 -17 -17 -25 16 -39 17 -7 30 -16 30 -21 0 -17 -21 -19 -51
-4 -17 9 -37 14 -45 11 -26 -10 -14 -33 25 -51 l40 -17 -19 -47 c-17 -43 -20
-46 -51 -43 -29 2 -48 -9 -49 -30 0 -3 14 -9 30 -13 21 -5 30 -12 30 -27 0
-18 -4 -20 -39 -14 -33 5 -39 3 -44 -14 -4 -17 1 -22 24 -27 33 -6 41 -14 30
-31 -5 -9 -17 -9 -45 -1 -30 8 -41 8 -47 -3 -15 -23 -10 -27 36 -39 25 -6 45
-13 45 -15 0 -1 -7 -34 -15 -72 -30 -145 -38 -355 -19 -504 4 -33 1 -38 -15
-38 -33 0 -51 -11 -51 -32 0 -17 6 -19 37 -16 32 3 38 0 38 -17 0 -14 -8 -21
-27 -23 -22 -3 -28 -9 -28 -27 0 -22 3 -23 35 -18 28 4 35 2 35 -11 0 -9 -11
-18 -27 -22 -49 -10 -53 -13 -53 -35 0 -19 4 -21 36 -15 19 4 41 9 47 11 8 3
24 -32 43 -95 l31 -99 -42 -17 c-34 -12 -42 -20 -38 -35 6 -23 10 -23 58 -3
41 17 40 17 49 -12 5 -18 1 -24 -24 -33 -27 -9 -30 -13 -20 -31 9 -16 15 -18
30 -10 10 5 26 10 34 10 29 0 17 -19 -24 -40 -35 -18 -39 -23 -30 -40 11 -20
11 -20 51 1 23 11 42 19 44 17 1 -2 14 -23 28 -48 l27 -46 -30 -17 c-25 -15
-28 -21 -18 -37 12 -18 13 -18 39 1 24 17 28 17 40 3 12 -14 9 -20 -16 -40
-27 -21 -28 -25 -14 -39 14 -14 18 -14 41 4 19 15 28 17 37 8 9 -9 3 -19 -26
-43 -33 -27 -36 -34 -24 -48 12 -14 17 -13 51 14 l37 29 22 -30 c74 -100 287
-290 395 -354 45 -26 45 -27 30 -51 -18 -26 -13 -54 9 -54 8 0 19 11 25 25 12
27 19 30 41 16 12 -8 12 -13 -3 -36 -15 -23 -16 -29 -5 -36 22 -14 29 -11 41
16 11 24 28 32 41 19 3 -4 -3 -25 -14 -47 -17 -32 -18 -41 -7 -48 21 -14 27
-11 47 30 l20 38 96 -35 c85 -32 96 -38 90 -57 -18 -65 -18 -75 3 -75 16 0 24
10 33 40 12 41 16 44 42 34 11 -4 14 -15 10 -40 -5 -29 -3 -34 15 -34 15 0 22
9 27 30 4 17 13 30 22 30 12 0 14 -7 9 -36 -4 -19 -10 -42 -13 -50 -4 -10 2
-14 20 -14 22 0 26 6 32 40 7 43 11 45 78 34 34 -6 37 -9 37 -40 0 -27 4 -34
19 -34 14 0 21 8 23 28 2 20 9 28 27 30 22 4 24 1 18 -32 -5 -33 -4 -36 19
-36 21 0 24 5 24 36 0 28 4 35 17 32 14 -3 17 -12 14 -51 -2 -45 -1 -47 23
-47 24 0 26 3 26 45 0 25 2 45 4 45 1 0 61 5 132 10 146 12 290 40 396 76 39
13 73 24 74 24 1 0 7 -14 13 -30 10 -29 34 -40 46 -21 3 5 0 21 -7 36 -10 22
-9 28 3 36 22 13 26 11 39 -21 13 -32 18 -34 38 -22 10 7 10 15 2 36 -10 27
-6 46 9 46 4 0 16 -18 26 -40 19 -43 22 -45 44 -31 13 8 12 15 -4 50 -10 23
-16 43 -14 44 14 11 167 97 172 97 3 0 17 -16 30 -35 21 -31 26 -33 42 -21 17
12 17 15 -8 48 -27 34 -27 35 -8 52 19 17 20 17 36 -8 19 -29 23 -30 45 -16
12 8 11 13 -8 39 -31 43 -7 53 29 13 32 -35 41 -38 58 -19 8 10 4 20 -19 42
-17 16 -30 31 -30 34 0 3 19 21 41 40 l40 33 25 -23 c23 -21 26 -22 41 -6 15
15 15 18 -11 38 -21 17 -24 24 -15 35 15 18 28 18 51 -2 14 -14 20 -15 33 -4
14 12 13 16 -10 40 -23 24 -25 40 -4 40 4 0 22 -12 39 -26 29 -25 33 -26 47
-11 15 15 14 18 -12 39 -16 13 -33 26 -38 30 -6 3 6 25 26 50 80 98 208 332
244 445 15 46 19 52 37 47 36 -12 50 -10 54 9 2 12 -6 21 -27 28 -33 12 -36
16 -22 37 5 9 17 11 36 6 18 -5 30 -2 36 7 14 22 11 26 -26 33 -25 5 -33 11
-28 22 4 11 18 14 51 12 37 -2 47 0 50 14 3 14 -6 19 -38 24 -22 4 -43 10 -45
14 -3 5 -1 30 4 57 6 26 13 69 16 96 l6 47 45 0 c37 0 44 3 44 20 0 14 -7 20
-22 20 -47 0 -69 12 -66 34 2 17 9 20 36 18 29 -3 32 -1 32 22 0 22 -4 26 -30
26 -20 0 -30 5 -30 15 0 11 12 15 45 15 38 0 45 3 45 20 0 17 -7 20 -50 20
l-50 0 0 54 c0 56 8 66 50 66 13 0 17 5 13 20 -4 15 -14 20 -39 20 -27 0 -34
4 -34 19 0 14 8 21 28 23 20 2 28 9 30 27 3 22 1 23 -31 17 -26 -5 -36 -3 -40
9 -5 10 2 17 21 21 56 12 62 16 62 36 0 18 -4 19 -50 13 -44 -6 -50 -5 -50 12
0 10 -20 77 -44 149 -45 133 -90 232 -153 338 l-36 58 29 23 c24 19 27 25 15
39 -12 14 -16 14 -41 -4 -27 -19 -29 -20 -39 -3 -8 14 -4 22 17 39 23 19 25
24 13 38 -12 14 -16 14 -41 -4 -20 -14 -30 -16 -38 -8 -8 8 -2 20 26 43 32 28
35 35 23 49 -12 14 -17 13 -49 -14 l-36 -30 -66 72 c-36 39 -66 74 -68 78 -2
4 9 22 24 39 24 29 25 34 12 47 -13 13 -18 11 -46 -20 -27 -31 -32 -33 -49
-21 -17 13 -17 14 5 44 22 30 22 31 3 41 -16 8 -23 5 -41 -17 -15 -19 -24 -23
-31 -16 -8 8 -4 21 16 47 43 57 10 80 -36 25 l-26 -32 -41 28 c-46 31 -49 36
-27 68 13 20 13 24 -5 35 -17 10 -21 8 -36 -18 -14 -23 -21 -27 -36 -19 -17 9
-17 12 -2 41 13 25 14 32 2 39 -21 14 -28 11 -40 -16 -6 -14 -17 -25 -25 -25
-17 0 -17 12 4 55 15 31 15 37 3 45 -23 15 -26 13 -45 -30 -10 -22 -20 -40
-22 -40 -2 0 -21 9 -42 19 -104 53 -413 141 -498 141 -41 0 -55 13 -51 46 2
24 -1 30 -19 32 -20 3 -23 -1 -23 -32 0 -29 -4 -36 -20 -36 -16 0 -20 7 -20
35 0 31 -3 35 -25 35 -21 0 -25 -5 -25 -30 0 -20 -5 -30 -15 -30 -11 0 -15 12
-15 45 0 39 -3 45 -20 45 -11 0 -23 -7 -27 -15z m315 -124 c93 -15 97 -17 94
-40 -1 -14 -4 -27 -6 -29 -3 -2 -49 4 -103 14 -115 20 -389 23 -498 5 -159
-26 -336 -80 -481 -147 -9 -4 -40 45 -32 51 2 1 41 18 88 38 287 122 624 160
938 108z m-110 -91 c370 -40 702 -200 967 -465 170 -170 286 -347 365 -559
194 -512 124 -1063 -192 -1511 -81 -115 -258 -292 -373 -373 -316 -223 -697
-328 -1067 -294 -393 36 -727 191 -1003 467 -170 170 -286 347 -365 559 -194
512 -124 1063 192 1511 81 115 258 292 373 373 326 230 717 333 1103 292z
m782 -173 c184 -122 353 -290 476 -477 56 -83 114 -185 114 -198 0 -5 -10 -14
-23 -19 -22 -10 -26 -6 -66 66 -147 266 -392 511 -653 652 -43 23 -78 46 -78
51 0 5 5 18 10 29 11 19 14 18 78 -18 37 -20 101 -59 142 -86z m-2096 -234
c-212 -208 -340 -413 -425 -678 -23 -71 -43 -135 -45 -141 -1 -7 -14 -9 -29
-6 -25 4 -26 7 -20 41 13 73 78 249 129 351 95 191 219 357 374 500 86 79 87
80 106 61 19 -20 19 -21 -90 -128z m2820 -820 c49 -171 52 -486 6 -714 -32
-156 -117 -399 -139 -399 -4 0 -15 6 -25 13 -18 13 -17 18 17 103 47 117 81
236 102 359 24 133 24 395 2 523 -21 115 -21 119 1 125 29 8 31 7 36 -10z
m-3330 -450 c27 -344 125 -628 306 -880 56 -79 58 -82 39 -99 -25 -22 -36 -13
-108 96 -179 268 -273 548 -295 878 l-5 82 28 0 c29 0 29 0 35 -77z m2981
-973 c18 -20 18 -21 -11 -53 -205 -228 -396 -370 -646 -476 -89 -38 -275 -97
-283 -90 -2 2 -6 16 -10 32 -6 22 -4 27 11 27 34 0 254 79 343 122 179 88 396
253 511 391 30 36 58 66 61 66 3 1 14 -8 24 -19z m-2261 -315 c231 -160 508
-259 798 -285 62 -5 121 -10 131 -10 11 0 17 -8 17 -24 0 -14 -3 -27 -7 -29
-19 -11 -266 15 -371 39 -148 33 -261 73 -392 138 -116 57 -288 169 -297 192
-4 12 12 44 23 44 2 0 46 -29 98 -65z"/>
<path d="M1810 3573 c-363 -47 -698 -216 -950 -479 -212 -222 -346 -474 -412
-778 -19 -87 -22 -131 -22 -316 0 -185 3 -229 22 -316 70 -321 226 -601 458
-824 222 -212 474 -346 778 -412 87 -19 131 -22 316 -22 242 0 328 13 521 80
447 154 818 526 973 973 67 193 80 279 80 521 0 185 -3 229 -22 316 -70 321
-226 601 -458 824 -171 164 -360 281 -572 354 -177 61 -273 77 -487 81 -104 2
-206 1 -225 -2z m160 -32 c0 -4 23 -11 52 -14 39 -5 56 -3 68 8 23 21 66 19
87 -4 26 -27 115 -38 133 -16 9 11 22 14 44 10 57 -12 65 -16 68 -37 4 -26 99
-62 140 -53 31 7 105 -27 110 -50 4 -22 121 -85 138 -75 18 11 90 -37 90 -60
0 -20 63 -72 82 -68 21 4 78 -44 78 -66 0 -27 39 -66 66 -66 26 0 67 -47 59
-67 -7 -20 57 -103 75 -98 19 6 54 -49 46 -71 -3 -8 7 -37 22 -64 20 -36 33
-50 49 -50 16 0 29 -12 43 -41 19 -37 20 -43 6 -58 -13 -14 -12 -23 7 -79 12
-34 29 -65 38 -67 22 -7 46 -92 32 -114 -14 -23 7 -143 30 -165 22 -22 24 -94
2 -102 -11 -5 -13 -17 -8 -52 3 -26 10 -51 14 -57 15 -15 11 -93 -5 -102 -18
-10 -32 -78 -17 -87 19 -12 13 -74 -8 -85 -24 -14 -48 -105 -32 -125 15 -18
-5 -73 -28 -81 -26 -8 -59 -109 -42 -129 18 -22 -21 -96 -52 -96 -16 0 -31
-14 -56 -56 -18 -30 -30 -62 -27 -70 9 -22 -53 -106 -73 -99 -19 6 -115 -100
-105 -116 10 -16 -57 -80 -77 -74 -20 7 -89 -49 -89 -71 0 -18 -67 -67 -80
-59 -17 11 -80 -27 -80 -47 0 -21 -52 -50 -75 -42 -21 9 -115 -35 -115 -53 0
-20 -61 -44 -77 -31 -21 17 -113 -12 -124 -39 -5 -14 -22 -26 -50 -33 -35 -10
-44 -9 -60 6 -15 13 -30 15 -83 9 -42 -4 -66 -11 -70 -21 -7 -19 -95 -19 -132
1 -32 17 -144 21 -144 5 0 -11 -52 -13 -87 -4 -13 4 -23 12 -23 18 0 17 -91
38 -107 25 -17 -15 -80 5 -102 32 -15 18 -29 23 -72 24 -65 2 -89 11 -89 34 0
22 -85 64 -111 56 -21 -7 -80 29 -76 47 1 6 -19 26 -45 45 -38 27 -51 32 -66
24 -27 -14 -96 42 -86 71 8 26 -79 118 -105 111 -22 -6 -81 64 -79 93 2 26
-70 124 -90 124 -21 0 -64 73 -56 95 9 21 -25 95 -43 95 -18 0 -55 81 -43 95
13 16 -10 84 -30 90 -23 7 -42 71 -25 85 17 14 -4 108 -28 121 -19 11 -24 73
-7 84 6 3 10 30 10 59 0 47 -3 56 -26 71 -23 15 -25 21 -19 58 4 23 15 49 25
57 21 18 34 123 18 149 -16 26 -1 112 21 118 21 5 59 139 43 155 -15 15 18 98
38 98 21 0 62 84 48 98 -13 13 31 92 52 92 20 0 54 56 46 76 -8 21 32 77 50
70 18 -7 86 74 79 93 -7 19 43 71 62 64 21 -8 93 65 94 97 0 35 51 74 85 66
31 -8 133 50 134 76 0 22 93 71 106 58 13 -13 142 41 147 62 6 22 81 45 99 30
17 -13 108 6 108 24 0 21 92 34 105 15 8 -13 78 -1 88 16 9 14 87 19 87 4z"/>
<path d="M1886 3478 c-13 -19 -14 -25 -2 -43 26 -38 43 -30 42 20 -1 50 -16
58 -40 23z"/>
<path d="M1950 3485 c-20 -24 -4 -65 26 -65 22 0 23 2 14 20 -8 14 -8 26 0 40
9 17 8 20 -8 20 -11 0 -25 -7 -32 -15z"/>
<path d="M2010 3480 c-13 -25 3 -60 28 -60 13 0 17 9 17 40 1 32 -3 40 -17 40
-9 0 -22 -9 -28 -20z"/>
<path d="M2077 3473 c-13 -28 -1 -56 28 -61 15 -3 17 1 11 23 -4 15 -2 33 4
40 8 9 5 14 -10 18 -16 4 -24 -1 -33 -20z"/>
<path d="M1773 3480 c-40 -16 -25 -80 19 -80 20 0 24 15 7 25 -6 4 -7 19 -4
36 4 16 5 29 3 28 -2 0 -13 -4 -25 -9z"/>
<path d="M1817 3468 c-8 -29 9 -58 33 -58 22 0 24 7 11 29 -6 9 -6 22 0 33 8
15 6 18 -14 18 -17 0 -26 -7 -30 -22z"/>
<path d="M2141 3472 c-14 -26 -2 -62 20 -62 13 0 18 7 18 23 -1 12 2 30 6 40
10 24 -31 23 -44 -1z"/>
<path d="M2204 3462 c-15 -24 0 -62 25 -62 14 0 18 5 14 19 -3 10 0 28 6 40
10 19 9 21 -11 21 -13 0 -28 -8 -34 -18z"/>
<path d="M1688 3446 c-6 -30 13 -56 41 -56 18 0 20 3 11 19 -5 11 -10 29 -10
40 0 30 -36 28 -42 -3z"/>
<path d="M2270 3456 c-17 -22 -8 -58 17 -67 20 -7 22 -6 17 20 -4 16 -1 32 5
35 6 4 11 11 11 17 0 14 -36 11 -50 -5z"/>
<path d="M1628 3435 c-9 -20 -8 -28 6 -44 10 -11 25 -17 37 -14 18 5 18 7 5
22 -9 10 -13 26 -9 39 8 32 -24 29 -39 -3z"/>
<path d="M2334 3439 c-14 -16 -15 -24 -6 -44 15 -32 47 -35 39 -3 -4 13 0 29
9 39 13 15 13 17 -5 22 -12 3 -27 -3 -37 -14z"/>
<path d="M1567 3433 c-11 -11 -8 -48 5 -61 7 -7 21 -12 31 -12 15 0 17 4 11
18 -4 9 -8 27 -8 40 -1 21 -24 30 -39 15z"/>
<path d="M2396 3421 c-17 -18 -13 -49 8 -63 20 -14 28 -8 24 17 -3 14 1 30 8
36 8 6 11 15 8 20 -9 15 -30 10 -48 -10z"/>
<path d="M1492 3408 c-7 -7 -12 -19 -12 -28 0 -24 34 -52 53 -44 15 5 15 9 3
26 -8 10 -12 28 -9 39 6 22 -16 26 -35 7z"/>
<path d="M2475 3401 c-9 -11 -15 -30 -13 -43 4 -27 38 -38 38 -12 0 10 7 25
16 35 14 16 14 18 -4 28 -15 8 -23 6 -37 -8z"/>
<path d="M1438 3389 c-10 -5 -18 -18 -18 -28 0 -25 33 -53 54 -45 16 6 16 8 1
25 -11 11 -14 25 -10 38 7 23 -1 26 -27 10z"/>
<path d="M1769 3386 c-294 -52 -548 -184 -759 -396 -200 -199 -327 -433 -387
-713 -25 -116 -25 -438 0 -554 120 -559 541 -980 1100 -1100 116 -25 438 -25
554 0 278 60 515 188 713 387 200 199 327 434 387 713 25 116 25 438 0 554
-120 556 -534 973 -1092 1099 -96 22 -414 28 -516 10z m144 -53 c-13 -2 -33
-2 -45 0 -13 2 -3 4 22 4 25 0 35 -2 23 -4z m220 0 c-13 -2 -33 -2 -45 0 -13
2 -3 4 22 4 25 0 35 -2 23 -4z m-320 -10 c-7 -2 -19 -2 -25 0 -7 3 -2 5 12 5
14 0 19 -2 13 -5z m400 0 c-7 -2 -19 -2 -25 0 -7 3 -2 5 12 5 14 0 19 -2 13
-5z m-460 -10 c-7 -2 -19 -2 -25 0 -7 3 -2 5 12 5 14 0 19 -2 13 -5z m520 0
c-7 -2 -19 -2 -25 0 -7 3 -2 5 12 5 14 0 19 -2 13 -5z m-566 -9 c-3 -3 -12 -4
-19 -1 -8 3 -5 6 6 6 11 1 17 -2 13 -5z m303 -19 c0 -21 5 -25 30 -25 25 0 30
4 30 25 0 14 5 25 10 25 6 0 10 -11 10 -24 0 -41 54 -50 64 -11 8 33 30 33 24
0 -4 -20 -1 -26 18 -31 29 -7 44 2 44 28 0 18 4 19 37 13 39 -7 195 -54 202
-61 2 -2 -4 -24 -14 -49 -19 -52 -19 -51 15 -60 22 -5 27 -1 43 39 l19 45 50
-25 c27 -14 48 -28 46 -32 -2 -4 -12 -24 -23 -45 -19 -38 -19 -39 0 -53 27
-20 29 -19 54 26 12 22 25 40 29 40 4 0 24 -11 45 -25 36 -25 36 -27 21 -49
-14 -23 -14 -25 7 -40 21 -15 25 -14 45 5 12 11 25 16 28 11 3 -5 -1 -15 -9
-22 -21 -17 -19 -37 6 -50 16 -9 24 -8 38 4 24 21 36 8 14 -16 -16 -18 -16
-20 5 -40 20 -20 22 -21 40 -5 17 16 20 15 49 -16 17 -17 52 -61 77 -96 l47
-65 -23 -18 c-13 -10 -31 -20 -40 -24 -21 -6 -22 -17 -7 -45 10 -20 11 -20 56
6 25 14 47 24 48 23 6 -7 45 -88 45 -92 0 -3 -20 -16 -44 -28 -38 -20 -43 -26
-35 -45 10 -27 18 -28 66 -8 45 19 42 19 52 -7 23 -63 23 -68 -2 -77 -20 -8
-24 -15 -19 -36 4 -23 9 -26 33 -23 20 3 29 0 29 -9 0 -7 -9 -13 -21 -13 -17
0 -20 -5 -17 -32 3 -29 6 -33 31 -30 34 4 36 -14 1 -22 -18 -5 -24 -12 -20
-22 3 -9 6 -23 6 -31 0 -11 7 -14 24 -9 33 8 36 -5 36 -135 l0 -109 -50 0
c-49 0 -50 -1 -50 -30 0 -29 2 -30 44 -30 25 0 47 -3 49 -7 2 -5 -1 -31 -5
-59 l-9 -52 -41 10 c-52 11 -68 5 -68 -26 0 -21 6 -25 41 -31 48 -8 55 -21 39
-70 -11 -33 -14 -36 -41 -30 -16 4 -29 3 -29 -2 0 -4 -3 -18 -6 -30 -4 -16 0
-23 15 -28 31 -10 26 -28 -6 -21 -17 5 -29 3 -34 -6 -15 -23 -10 -45 11 -51
11 -3 20 -10 20 -16 0 -14 -16 -14 -39 -1 -15 7 -20 4 -30 -16 -10 -22 -8 -28
10 -43 l22 -17 -38 -60 c-21 -32 -52 -78 -70 -101 l-32 -42 -34 29 c-41 35
-55 37 -69 9 -10 -18 -7 -25 25 -52 l36 -32 -41 -40 -42 -40 -31 37 -32 37
-25 -19 -25 -19 33 -33 c17 -19 32 -38 32 -43 0 -6 -17 -22 -38 -37 -37 -26
-38 -26 -50 -7 -14 23 -22 23 -46 6 -16 -11 -17 -17 -6 -36 16 -30 3 -41 -19
-15 -13 17 -21 19 -39 11 -24 -11 -27 -23 -13 -47 17 -25 -1 -34 -20 -9 -15
20 -20 22 -43 11 -23 -10 -25 -15 -15 -33 6 -13 7 -25 2 -30 -11 -11 -198 -79
-217 -79 -7 0 -17 19 -22 43 -8 36 -13 42 -38 45 l-29 4 7 -55 7 -54 -32 -7
c-67 -13 -79 -9 -79 28 0 52 -7 63 -38 58 -26 -3 -27 -6 -24 -53 l4 -49 -51 0
c-48 0 -51 2 -51 25 0 21 -5 25 -30 25 -25 0 -30 -4 -30 -25 0 -14 -4 -25 -10
-25 -5 0 -10 11 -10 24 0 41 -54 50 -64 11 -8 -33 -30 -33 -24 0 4 20 1 26
-18 31 -29 7 -44 -2 -44 -28 0 -18 -4 -19 -37 -13 -39 7 -195 54 -202 61 -2 2
4 24 14 49 19 52 19 51 -15 60 -22 5 -27 1 -43 -39 l-19 -45 -50 25 c-27 14
-48 28 -46 32 2 4 12 24 23 45 19 38 19 39 0 53 -27 20 -29 19 -54 -26 -12
-22 -25 -40 -29 -40 -4 0 -24 11 -45 25 -36 25 -36 27 -21 49 14 23 14 25 -7
40 -21 15 -25 14 -45 -5 -12 -11 -25 -16 -28 -11 -3 5 1 15 9 22 21 17 19 37
-6 50 -16 9 -24 8 -38 -4 -24 -21 -36 -8 -14 16 16 18 16 20 -5 40 -20 20 -22
21 -40 5 -17 -16 -20 -15 -49 16 -17 17 -52 61 -77 96 l-47 65 23 18 c13 10
31 20 41 24 20 6 21 17 6 45 -10 20 -11 20 -56 -6 -25 -14 -47 -24 -48 -23 -6
7 -45 88 -45 92 0 3 20 16 44 28 38 20 43 26 35 46 -10 26 -18 27 -66 7 -45
-19 -42 -19 -52 8 -23 62 -23 67 2 76 20 8 24 15 19 36 -4 23 -9 26 -33 23
-20 -3 -29 0 -29 9 0 7 9 13 21 13 17 0 20 5 17 33 -3 28 -6 32 -30 29 -35 -4
-37 14 -2 22 18 5 24 12 20 22 -3 9 -6 23 -6 31 0 11 -7 14 -24 9 -33 -8 -36
5 -36 135 l0 109 50 0 c49 0 50 1 50 30 0 29 -2 30 -44 30 -25 0 -47 3 -49 8
-2 4 1 30 5 58 l9 52 41 -10 c52 -11 68 -5 68 26 0 21 -6 25 -41 31 -48 8 -55
21 -39 70 11 33 14 36 41 30 16 -4 29 -3 29 2 0 4 3 18 6 30 4 16 0 23 -15 28
-31 10 -26 28 6 21 17 -5 29 -3 34 6 15 23 10 45 -11 51 -11 3 -20 10 -20 16
0 14 16 14 39 1 15 -7 20 -4 30 16 10 22 8 28 -10 43 l-22 17 38 60 c21 32 52
78 70 101 l32 42 34 -29 c41 -35 55 -37 69 -9 10 18 7 25 -25 52 l-36 32 41
40 42 40 31 -37 32 -37 25 19 25 19 -32 33 c-18 19 -33 38 -33 43 0 6 17 22
38 37 37 26 38 26 50 7 14 -23 22 -23 46 -6 16 11 17 17 6 36 -16 30 -3 41 19
15 13 -17 21 -19 39 -11 24 11 27 23 13 47 -17 25 1 34 20 9 15 -20 20 -22 43
-11 23 10 25 15 15 33 -6 13 -7 25 -2 30 11 11 198 79 217 79 7 0 17 -19 22
-42 8 -37 13 -43 38 -46 l29 -4 -7 55 -7 54 32 7 c67 13 79 9 79 -28 0 -52 7
-63 38 -58 26 3 27 6 24 53 l-4 49 51 0 c48 0 51 -2 51 -25z m307 19 c-3 -3
-12 -4 -19 -1 -8 3 -5 6 6 6 11 1 17 -2 13 -5z m-650 -10 c-3 -3 -12 -4 -19
-1 -8 3 -5 6 6 6 11 1 17 -2 13 -5z m690 0 c-3 -3 -12 -4 -19 -1 -8 3 -5 6 6
6 11 1 17 -2 13 -5z m-857 -54 c-8 -5 -19 -10 -25 -10 -5 0 -3 5 5 10 8 5 20
10 25 10 6 0 3 -5 -5 -10z m1020 0 c8 -5 11 -10 5 -10 -5 0 -17 5 -25 10 -8 5
-10 10 -5 10 6 0 17 -5 25 -10z m-1120 -44 c0 -2 -7 -7 -16 -10 -8 -3 -12 -2
-9 4 6 10 25 14 25 6z m1225 -6 c3 -6 -1 -7 -9 -4 -18 7 -21 14 -7 14 6 0 13
-4 16 -10z m-1285 -25 c0 -2 -10 -9 -22 -15 -22 -11 -22 -10 -4 4 21 17 26 19
26 11z m1360 -21 c0 -2 -9 0 -20 6 -11 6 -20 13 -20 16 0 2 9 0 20 -6 11 -6
20 -13 20 -16z m-1410 -8 c0 -2 -12 -11 -27 -20 l-28 -17 24 20 c23 21 31 25
31 17z m1466 -27 c3 -6 -5 -3 -20 6 -14 10 -26 19 -26 22 0 7 39 -17 46 -28z
m-1546 -30 c-106 -86 -165 -141 -213 -198 -95 -112 -100 -117 -66 -68 43 62
158 180 234 240 33 26 62 47 65 47 3 -1 -6 -10 -20 -21z m1739 -130 c47 -47
101 -108 119 -135 35 -50 30 -46 -65 67 -30 37 -85 92 -122 122 -113 95 -117
100 -67 65 27 -18 88 -72 135 -119z m-2065 -214 c-9 -14 -18 -25 -21 -25 -5 0
5 18 20 38 17 22 18 13 1 -13z m2246 -6 c15 -28 5 -23 -15 7 -9 15 -12 23 -6
20 6 -4 16 -16 21 -27z m-2280 -49 c-6 -11 -13 -20 -16 -20 -2 0 0 9 6 20 6
11 13 20 16 20 2 0 0 -9 -6 -20z m2310 0 c6 -11 8 -20 6 -20 -3 0 -10 9 -16
20 -6 11 -8 20 -6 20 3 0 10 -9 16 -20z m-2347 -65 c-3 -9 -8 -14 -10 -11 -3
3 -2 9 2 15 9 16 15 13 8 -4z m2385 -10 c-3 -3 -9 2 -12 12 -6 14 -5 15 5 6 7
-7 10 -15 7 -18z m-2437 -102 c-12 -20 -14 -14 -5 12 4 9 9 14 11 11 3 -2 0
-13 -6 -23z m2489 -8 c0 -5 -5 -3 -10 5 -5 8 -10 20 -10 25 0 6 5 3 10 -5 5
-8 10 -19 10 -25z m-2519 -76 c-5 -13 -10 -19 -10 -12 -1 15 10 45 15 40 3 -2
0 -15 -5 -28z m2548 -9 c0 -10 -3 -8 -9 5 -12 27 -12 43 0 25 5 -8 9 -22 9
-30z m-2572 -72 c-3 -8 -6 -5 -6 6 -1 11 2 17 5 13 3 -3 4 -12 1 -19z m2590 0
c-3 -8 -6 -5 -6 6 -1 11 2 17 5 13 3 -3 4 -12 1 -19z m-2600 -40 c-3 -8 -6 -5
-6 6 -1 11 2 17 5 13 3 -3 4 -12 1 -19z m2610 0 c-3 -8 -6 -5 -6 6 -1 11 2 17
5 13 3 -3 4 -12 1 -19z m-2620 -50 c-3 -7 -5 -2 -5 12 0 14 2 19 5 13 2 -7 2
-19 0 -25z m2630 0 c-3 -7 -5 -2 -5 12 0 14 2 19 5 13 2 -7 2 -19 0 -25z
m-2640 -60 c-3 -7 -5 -2 -5 12 0 14 2 19 5 13 2 -7 2 -19 0 -25z m2650 0 c-3
-7 -5 -2 -5 12 0 14 2 19 5 13 2 -7 2 -19 0 -25z m-2660 -100 c-2 -13 -4 -3
-4 22 0 25 2 35 4 23 2 -13 2 -33 0 -45z m2670 0 c-2 -13 -4 -3 -4 22 0 25 2
35 4 23 2 -13 2 -33 0 -45z m-2670 -220 c-2 -13 -4 -3 -4 22 0 25 2 35 4 23 2
-13 2 -33 0 -45z m2670 0 c-2 -13 -4 -3 -4 22 0 25 2 35 4 23 2 -13 2 -33 0
-45z m-2660 -80 c-3 -7 -5 -2 -5 12 0 14 2 19 5 13 2 -7 2 -19 0 -25z m2650 0
c-3 -7 -5 -2 -5 12 0 14 2 19 5 13 2 -7 2 -19 0 -25z m-2640 -60 c-3 -7 -5 -2
-5 12 0 14 2 19 5 13 2 -7 2 -19 0 -25z m2630 0 c-3 -7 -5 -2 -5 12 0 14 2 19
5 13 2 -7 2 -19 0 -25z m-2620 -40 c-3 -8 -6 -5 -6 6 -1 11 2 17 5 13 3 -3 4
-12 1 -19z m2610 0 c-3 -8 -6 -5 -6 6 -1 11 2 17 5 13 3 -3 4 -12 1 -19z
m-2600 -40 c-3 -8 -6 -5 -6 6 -1 11 2 17 5 13 3 -3 4 -12 1 -19z m2590 0 c-3
-8 -6 -5 -6 6 -1 11 2 17 5 13 3 -3 4 -12 1 -19z m-2558 -93 c0 -5 -4 -3 -9 5
-5 8 -9 22 -9 30 0 16 17 -16 18 -35z m2531 8 c-11 -17 -11 -17 -6 0 3 10 6
24 7 30 0 9 2 9 5 0 3 -7 0 -20 -6 -30z m-2500 -88 c0 -5 -5 -3 -10 5 -5 8
-10 20 -10 25 0 6 5 3 10 -5 5 -8 10 -19 10 -25z m2471 8 c-12 -20 -14 -14 -5
12 4 9 9 14 11 11 3 -2 0 -13 -6 -23z m-2427 -99 c3 -8 2 -12 -4 -9 -6 3 -10
10 -10 16 0 14 7 11 14 -7z m2377 -7 c-10 -9 -11 -8 -5 6 3 10 9 15 12 12 3
-3 0 -11 -7 -18z m-2341 -57 c6 -11 8 -20 6 -20 -3 0 -10 9 -16 20 -6 11 -8
20 -6 20 3 0 10 -9 16 -20z m2310 0 c-6 -11 -13 -20 -16 -20 -2 0 0 9 6 20 6
11 13 20 16 20 2 0 0 -9 -6 -20z m-2275 -56 c9 -15 12 -23 6 -20 -11 7 -35 46
-28 46 3 0 12 -12 22 -26z m2245 7 c-5 -11 -15 -23 -21 -27 -6 -3 -3 5 6 20
20 30 30 35 15 7z m-2133 -152 c30 -37 85 -92 122 -122 113 -95 117 -100 67
-65 -27 18 -88 72 -135 119 -47 47 -101 108 -119 135 -35 50 -30 46 65 -67z
m2071 65 c-43 -60 -192 -209 -252 -252 -64 -46 -58 -34 8 16 69 53 175 159
228 228 50 66 62 72 16 8z m-1778 -321 c0 -7 -39 17 -46 28 -3 6 5 3 20 -6 14
-10 26 -19 26 -22z m1465 27 c-3 -5 -16 -15 -28 -21 -19 -9 -19 -8 3 10 28 23
34 26 25 11z m-1415 -56 c0 -2 -9 0 -20 6 -11 6 -20 13 -20 16 0 2 9 0 20 -6
11 -6 20 -13 20 -16z m1360 21 c0 -2 -10 -9 -22 -15 -22 -11 -22 -10 -4 4 21
17 26 19 26 11z m-1305 -53 c-3 -3 -11 0 -18 7 -9 10 -8 11 6 5 10 -3 15 -9
12 -12z m1230 8 c-3 -5 -12 -10 -18 -10 -7 0 -6 4 3 10 19 12 23 12 15 0z
m-1125 -50 c8 -5 11 -10 5 -10 -5 0 -17 5 -25 10 -8 5 -10 10 -5 10 6 0 17 -5
25 -10z m1020 0 c-8 -5 -19 -10 -25 -10 -5 0 -3 5 5 10 8 5 20 10 25 10 6 0 3
-5 -5 -10z m-80 -30 c-8 -5 -22 -9 -30 -9 -10 0 -8 3 5 9 27 12 43 12 25 0z
m-773 -26 c-3 -3 -12 -4 -19 -1 -8 3 -5 6 6 6 11 1 17 -2 13 -5z m690 0 c-3
-3 -12 -4 -19 -1 -8 3 -5 6 6 6 11 1 17 -2 13 -5z m-650 -10 c-3 -3 -12 -4
-19 -1 -8 3 -5 6 6 6 11 1 17 -2 13 -5z m610 0 c-3 -3 -12 -4 -19 -1 -8 3 -5
6 6 6 11 1 17 -2 13 -5z m-564 -11 c-7 -2 -19 -2 -25 0 -7 3 -2 5 12 5 14 0
19 -2 13 -5z m520 0 c-7 -2 -19 -2 -25 0 -7 3 -2 5 12 5 14 0 19 -2 13 -5z
m-460 -10 c-7 -2 -19 -2 -25 0 -7 3 -2 5 12 5 14 0 19 -2 13 -5z m400 0 c-7
-2 -19 -2 -25 0 -7 3 -2 5 12 5 14 0 19 -2 13 -5z m-300 -10 c-13 -2 -33 -2
-45 0 -13 2 -3 4 22 4 25 0 35 -2 23 -4z m220 0 c-13 -2 -33 -2 -45 0 -13 2
-3 4 22 4 25 0 35 -2 23 -4z"/>
<path d="M1781 3271 c-10 -7 -12 -21 -7 -55 7 -43 9 -46 38 -46 29 0 30 2 24
31 -3 17 -6 42 -6 55 0 25 -22 32 -49 15z"/>
<path d="M1875 3161 c-45 -5 -50 -8 -50 -31 0 -28 -11 -26 171 -22 l85 2 -3
28 c-3 27 -4 27 -78 28 -41 1 -97 -2 -125 -5z"/>
<path d="M2110 3131 c0 -25 4 -31 20 -31 45 0 180 -34 269 -67 95 -35 110 -35
111 5 0 28 -217 101 -345 117 l-55 7 0 -31z"/>
<path d="M2532 3115 c-21 -44 -21 -45 -2 -55 30 -16 35 -13 58 35 21 44 21 45
2 55 -30 16 -35 13 -58 -35z"/>
<path d="M1703 3130 c-115 -32 -293 -109 -293 -128 0 -5 6 -16 13 -26 11 -16
18 -14 97 23 79 37 243 91 277 91 20 0 13 54 -7 57 -8 1 -47 -7 -87 -17z"/>
<path d="M1799 3075 c-95 -18 -129 -31 -129 -49 0 -31 24 -34 115 -15 86 18
322 28 344 15 9 -6 23 45 14 54 -11 12 -273 8 -344 -5z"/>
<path d="M2518 3014 c-9 -19 -9 -29 -2 -31 9 -3 134 -85 180 -118 10 -7 20 -4
35 11 l21 22 -63 44 c-35 25 -85 57 -111 72 l-48 28 -12 -28z"/>
<path d="M2334 3015 c-9 -21 3 -45 21 -45 31 0 197 -92 280 -155 85 -65 85
-65 105 -45 20 20 20 20 -63 85 -83 66 -281 175 -318 175 -11 0 -22 -7 -25
-15z"/>
<path d="M2035 3011 c-3 -5 -1 -12 5 -16 5 -3 10 1 10 9 0 18 -6 21 -15 7z"/>
<path d="M2061 3004 c0 -11 3 -14 6 -6 3 7 2 16 -1 19 -3 4 -6 -2 -5 -13z"/>
<path d="M2081 3004 c0 -11 3 -14 6 -6 3 7 2 16 -1 19 -3 4 -6 -2 -5 -13z"/>
<path d="M2101 3004 c0 -11 3 -14 6 -6 3 7 2 16 -1 19 -3 4 -6 -2 -5 -13z"/>
<path d="M1772 2999 c-31 -9 -41 -38 -11 -31 41 11 55 14 67 14 6 1 12 7 12
15 0 15 -20 15 -68 2z"/>
<path d="M1310 2940 c-36 -27 -81 -62 -100 -79 l-35 -30 22 -23 23 -22 37 35
c21 20 64 55 95 79 56 41 57 42 41 66 -8 13 -16 24 -17 24 0 0 -30 -22 -66
-50z"/>
<path d="M1840 2959 c-56 -10 -76 -21 -67 -36 9 -14 187 18 187 34 0 15 -36
16 -120 2z"/>
<path d="M1980 2955 c0 -12 13 -15 55 -15 42 0 55 3 55 15 0 12 -13 15 -55 15
-42 0 -55 -3 -55 -15z"/>
<path d="M1394 2908 c-91 -60 -267 -231 -262 -255 2 -9 10 -21 20 -26 13 -9
22 -4 44 24 57 70 156 159 232 209 75 49 79 53 68 76 -6 13 -14 24 -17 24 -3
0 -42 -23 -85 -52z"/>
<path d="M2110 2947 c0 -8 32 -19 84 -30 101 -20 106 -21 106 -4 0 9 -26 20
-69 30 -83 20 -121 22 -121 4z"/>
<path d="M2365 2939 c-8 -13 -8 -13 30 -26 17 -6 38 -14 48 -18 12 -5 17 -2
17 10 0 9 -4 13 -10 10 -5 -3 -10 -1 -10 6 0 7 -3 10 -6 6 -4 -3 -13 0 -21 8
-17 18 -39 19 -48 4z"/>
<path d="M1085 2910 c-19 -21 -18 -21 18 -58 l37 -37 20 21 20 20 -38 37 -38
38 -19 -21z"/>
<path d="M1603 2885 c-48 -22 -73 -40 -73 -50 0 -10 5 -15 13 -12 6 3 47 21
89 39 72 31 92 50 57 55 -8 2 -47 -13 -86 -32z"/>
<path d="M2048 2913 c7 -3 16 -2 19 1 4 3 -2 6 -13 5 -11 0 -14 -3 -6 -6z"/>
<path d="M2366 2893 c-13 -14 -3 -23 70 -62 82 -45 94 -48 94 -27 0 15 -154
99 -164 89z"/>
<path d="M1474 2875 c-4 -8 -10 -12 -15 -9 -5 3 -9 0 -9 -6 0 -6 -4 -8 -10 -5
-5 3 -10 2 -10 -4 0 -20 19 -21 48 -4 16 10 27 24 25 31 -6 17 -22 15 -29 -3z"/>
<path d="M2750 2849 c-10 -18 -3 -29 58 -93 38 -40 93 -110 122 -155 29 -44
56 -81 60 -81 3 0 15 6 25 14 18 13 17 17 -27 87 -65 105 -193 249 -220 249
-4 0 -12 -9 -18 -21z"/>
<path d="M1677 2840 c3 -11 7 -20 9 -20 2 0 4 9 4 20 0 11 -4 20 -9 20 -5 0
-7 -9 -4 -20z"/>
<path d="M1711 2843 c-1 -12 4 -25 10 -29 16 -10 33 12 25 33 -6 14 -9 15 -15
4 -7 -11 -9 -11 -14 0 -3 8 -6 5 -6 -8z"/>
<path d="M1768 2835 c2 -14 6 -25 8 -25 2 0 4 11 4 25 0 14 -4 25 -9 25 -4 0
-6 -11 -3 -25z"/>
<path d="M1802 2838 c2 -13 10 -23 18 -23 8 0 16 10 18 23 3 17 -2 22 -18 22
-16 0 -21 -5 -18 -22z"/>
<path d="M1852 2840 c4 -31 32 -33 36 -2 2 12 -1 22 -7 22 -6 0 -11 -6 -11
-12 0 -9 -4 -8 -11 2 -8 12 -9 10 -7 -10z"/>
<path d="M1912 2835 c0 -16 2 -22 5 -12 2 9 2 23 0 30 -3 6 -5 -1 -5 -18z"/>
<path d="M1943 2843 c-7 -18 12 -38 26 -29 6 4 11 15 11 25 0 21 -30 24 -37 4z"/>
<path d="M2002 2840 c0 -14 2 -19 5 -12 2 6 2 18 0 25 -3 6 -5 1 -5 -13z"/>
<path d="M2043 2841 c3 -36 27 -39 27 -4 0 19 -3 24 -9 14 -7 -11 -10 -11 -15
0 -3 8 -4 3 -3 -10z"/>
<path d="M2098 2835 c2 -14 6 -25 8 -25 2 0 4 11 4 25 0 14 -4 25 -9 25 -4 0
-6 -11 -3 -25z"/>
<path d="M2132 2838 c2 -13 10 -23 18 -23 8 0 16 10 18 23 3 17 -2 22 -18 22
-16 0 -21 -5 -18 -22z"/>
<path d="M2183 2841 c3 -36 27 -39 27 -4 0 19 -3 24 -9 14 -7 -11 -10 -11 -15
0 -3 8 -4 3 -3 -10z"/>
<path d="M2230 2833 c0 -30 24 -26 28 4 2 12 -3 20 -13 20 -9 0 -15 -9 -15
-24z"/>
<path d="M2280 2840 c0 -11 5 -20 10 -20 6 0 10 9 10 20 0 11 -4 20 -10 20 -5
0 -10 -9 -10 -20z"/>
<path d="M2323 2841 c3 -36 27 -39 27 -4 0 19 -3 24 -9 14 -7 -11 -10 -11 -15
0 -3 8 -4 3 -3 -10z"/>
<path d="M1633 2843 c-16 -6 -17 -33 -3 -33 11 0 26 28 19 34 -2 2 -10 1 -16
-1z"/>
<path d="M2381 2824 c0 -11 3 -14 6 -6 3 7 2 16 -1 19 -3 4 -6 -2 -5 -13z"/>
<path d="M1457 2805 c-36 -25 -43 -36 -31 -48 10 -9 95 53 89 64 -9 14 -17 11
-58 -16z"/>
<path d="M1118 2766 c-66 -75 -199 -290 -186 -301 2 -1 13 -7 25 -14 20 -10
24 -6 63 67 44 81 103 166 153 219 30 32 30 33 12 53 -10 11 -21 20 -24 19 -3
0 -23 -20 -43 -43z"/>
<path d="M2617 2794 c-12 -12 17 -33 31 -22 9 8 11 7 7 -5 -7 -17 10 -31 25
-22 7 4 1 16 -15 31 -27 25 -37 29 -48 18z"/>
<path d="M2546 2781 c-9 -14 73 -76 85 -64 7 7 -2 21 -26 42 -37 32 -50 37
-59 22z"/>
<path d="M1624 2756 c-8 -21 3 -49 16 -41 5 3 10 15 10 25 0 25 -18 36 -26 16z"/>
<path d="M1714 2755 c-4 -8 -3 -23 0 -32 6 -15 8 -15 23 -1 16 17 12 48 -7 48
-6 0 -13 -7 -16 -15z"/>
<path d="M1807 2763 c-13 -12 -7 -41 8 -47 18 -6 30 16 21 39 -6 16 -18 19
-29 8z"/>
<path d="M1854 2756 c-9 -24 3 -47 21 -40 18 7 16 45 -2 52 -7 2 -16 -3 -19
-12z"/>
<path d="M1943 2754 c-3 -8 1 -23 10 -32 15 -14 17 -14 23 1 8 21 -1 47 -16
47 -6 0 -13 -7 -17 -16z"/>
<path d="M2044 2756 c-8 -21 3 -49 16 -41 5 3 10 15 10 25 0 25 -18 36 -26 16z"/>
<path d="M2134 2756 c-8 -22 3 -49 19 -43 6 2 12 14 12 27 0 27 -22 39 -31 16z"/>
<path d="M2184 2756 c-8 -21 3 -49 16 -41 5 3 10 15 10 25 0 25 -18 36 -26 16z"/>
<path d="M2234 2756 c-8 -21 3 -49 16 -41 5 3 10 15 10 25 0 25 -18 36 -26 16z"/>
<path d="M2324 2756 c-8 -21 3 -49 16 -41 5 3 10 15 10 25 0 25 -18 36 -26 16z"/>
<path d="M2377 2763 c-2 -5 -1 -19 4 -33 7 -23 7 -23 8 8 1 31 -3 40 -12 25z"/>
<path d="M2417 2763 c-13 -12 -7 -41 8 -47 18 -6 30 16 21 39 -6 16 -18 19
-29 8z"/>
<path d="M2464 2755 c-4 -8 -3 -23 0 -32 6 -15 8 -15 22 -2 8 9 12 23 8 32 -8
21 -23 22 -30 2z"/>
<path d="M1324 2696 c-54 -52 -66 -68 -56 -78 10 -10 26 1 79 55 49 48 64 70
56 78 -7 7 -29 -8 -79 -55z"/>
<path d="M1487 2740 c3 -11 7 -20 9 -20 2 0 4 9 4 20 0 11 -4 20 -9 20 -5 0
-7 -9 -4 -20z"/>
<path d="M1530 2740 c0 -11 5 -20 10 -20 6 0 10 9 10 20 0 11 -4 20 -10 20 -5
0 -10 -9 -10 -20z"/>
<path d="M1582 2740 c0 -14 2 -19 5 -12 2 6 2 18 0 25 -3 6 -5 1 -5 -13z"/>
<path d="M1677 2740 c3 -11 7 -20 9 -20 2 0 4 9 4 20 0 11 -4 20 -9 20 -5 0
-7 -9 -4 -20z"/>
<path d="M1772 2735 c0 -16 2 -22 5 -12 2 9 2 23 0 30 -3 6 -5 -1 -5 -18z"/>
<path d="M1912 2735 c0 -16 2 -22 5 -12 2 9 2 23 0 30 -3 6 -5 -1 -5 -18z"/>
<path d="M2002 2740 c0 -14 2 -19 5 -12 2 6 2 18 0 25 -3 6 -5 1 -5 -13z"/>
<path d="M2097 2740 c3 -11 7 -20 9 -20 2 0 4 9 4 20 0 11 -4 20 -9 20 -5 0
-7 -9 -4 -20z"/>
<path d="M2280 2740 c0 -11 5 -20 10 -20 6 0 10 9 10 20 0 11 -4 20 -10 20 -5
0 -10 -9 -10 -20z"/>
<path d="M2518 2735 c2 -14 6 -25 8 -25 2 0 4 11 4 25 0 14 -4 25 -9 25 -4 0
-6 -11 -3 -25z"/>
<path d="M2550 2731 c0 -5 7 -11 14 -14 10 -4 13 -1 9 9 -6 15 -23 19 -23 5z"/>
<path d="M1240 2684 c-26 -25 -32 -36 -23 -45 8 -8 19 -3 42 22 17 19 31 37
31 41 1 19 -19 12 -50 -18z"/>
<path d="M2645 2699 c-4 -5 19 -38 51 -72 32 -34 61 -66 65 -71 5 -5 11 -2 15
7 4 12 -11 37 -51 82 -57 66 -69 73 -80 54z"/>
<path d="M1387 2664 c-16 -16 -7 -44 14 -44 15 0 20 5 17 22 -3 22 -19 33 -31
22z"/>
<path d="M1442 2645 c0 -16 2 -22 5 -12 2 9 2 23 0 30 -3 6 -5 -1 -5 -18z"/>
<path d="M1492 2645 c0 -16 2 -22 5 -12 2 9 2 23 0 30 -3 6 -5 -1 -5 -18z"/>
<path d="M1582 2645 c0 -16 2 -22 5 -12 2 9 2 23 0 30 -3 6 -5 -1 -5 -18z"/>
<path d="M1621 2643 c0 -16 3 -22 6 -14 5 11 7 11 14 0 6 -10 9 -6 9 14 0 17
-5 27 -15 27 -10 0 -15 -9 -14 -27z"/>
<path d="M1717 2664 c-14 -15 -7 -42 11 -40 9 2 17 11 17 21 0 19 -17 30 -28
19z"/>
<path d="M1772 2645 c0 -16 2 -22 5 -12 2 9 2 23 0 30 -3 6 -5 -1 -5 -18z"/>
<path d="M1807 2664 c-11 -11 -8 -44 3 -44 6 0 10 6 10 13 0 8 4 7 11 -3 8
-12 9 -10 7 9 -3 25 -19 37 -31 25z"/>
<path d="M1857 2664 c-16 -16 -7 -44 14 -44 15 0 20 5 17 22 -3 22 -19 33 -31
22z"/>
<path d="M1912 2645 c0 -16 2 -22 5 -12 2 9 2 23 0 30 -3 6 -5 -1 -5 -18z"/>
<path d="M1944 2655 c-4 -9 -2 -21 5 -28 8 -8 11 -7 11 4 0 12 2 12 11 -1 8
-12 9 -10 7 9 -4 29 -25 39 -34 16z"/>
<path d="M2002 2645 c0 -16 2 -22 5 -12 2 9 2 23 0 30 -3 6 -5 -1 -5 -18z"/>
<path d="M2040 2647 c0 -14 6 -24 15 -24 9 0 15 10 15 24 0 14 -6 23 -15 23
-9 0 -15 -9 -15 -23z"/>
<path d="M2097 2663 c-3 -5 -1 -17 4 -28 7 -17 8 -17 8 8 1 27 -4 34 -12 20z"/>
<path d="M2137 2664 c-16 -16 -7 -44 14 -44 15 0 20 5 17 22 -3 22 -19 33 -31
22z"/>
<path d="M2187 2663 c-13 -12 -7 -40 8 -40 9 0 15 10 15 24 0 22 -10 30 -23
16z"/>
<path d="M2231 2643 c0 -15 3 -22 6 -14 5 11 7 11 15 0 6 -10 8 -7 6 10 -4 36
-28 39 -27 4z"/>
<path d="M2327 2663 c-13 -12 -7 -40 8 -40 9 0 15 10 15 24 0 22 -10 30 -23
16z"/>
<path d="M2382 2645 c0 -16 2 -22 5 -12 2 9 2 23 0 30 -3 6 -5 -1 -5 -18z"/>
<path d="M2417 2664 c-16 -16 -7 -44 14 -44 15 0 20 5 17 22 -3 22 -19 33 -31
22z"/>
<path d="M2467 2664 c-14 -15 -7 -42 11 -40 9 2 17 11 17 21 0 19 -17 30 -28
19z"/>
<path d="M2522 2645 c0 -16 2 -22 5 -12 2 9 2 23 0 30 -3 6 -5 -1 -5 -18z"/>
<path d="M2557 2664 c-16 -16 -7 -44 14 -44 15 0 20 5 17 22 -3 22 -19 33 -31
22z"/>
<path d="M2612 2645 c0 -16 2 -22 5 -12 2 9 2 23 0 30 -3 6 -5 -1 -5 -18z"/>
<path d="M1530 2640 c0 -11 5 -20 10 -20 6 0 10 9 10 20 0 11 -4 20 -10 20 -5
0 -10 -9 -10 -20z"/>
<path d="M1677 2640 c3 -11 7 -20 9 -20 2 0 4 9 4 20 0 11 -4 20 -9 20 -5 0
-7 -9 -4 -20z"/>
<path d="M2280 2640 c0 -11 5 -20 10 -20 6 0 10 9 10 20 0 11 -4 20 -10 20 -5
0 -10 -9 -10 -20z"/>
<path d="M2652 2640 c0 -14 2 -19 5 -12 2 6 2 18 0 25 -3 6 -5 1 -5 -13z"/>
<path d="M1351 2634 c0 -11 3 -14 6 -6 3 7 2 16 -1 19 -3 4 -6 -2 -5 -13z"/>
<path d="M2860 2614 c-11 -12 -10 -21 9 -52 66 -111 123 -250 145 -353 5 -22
10 -25 31 -21 32 6 32 23 -1 131 -38 124 -134 311 -160 311 -6 0 -17 -7 -24
-16z"/>
<path d="M3079 2587 c-32 -19 -35 -25 -26 -44 12 -28 18 -28 67 -3 44 22 44
23 30 51 -13 24 -25 23 -71 -4z"/>
<path d="M1188 2533 c-48 -72 -70 -125 -59 -136 6 -6 12 -9 14 -6 13 17 90
159 89 165 -1 22 -21 11 -44 -23z"/>
<path d="M1291 2543 c0 -16 3 -22 6 -14 5 11 7 11 14 0 6 -10 9 -6 9 14 0 17
-5 27 -15 27 -10 0 -15 -9 -14 -27z"/>
<path d="M1352 2545 c0 -16 2 -22 5 -12 2 9 2 23 0 30 -3 6 -5 -1 -5 -18z"/>
<path d="M1387 2564 c-16 -16 -7 -44 14 -44 15 0 20 5 17 22 -3 22 -19 33 -31
22z"/>
<path d="M1442 2545 c0 -16 2 -22 5 -12 2 9 2 23 0 30 -3 6 -5 -1 -5 -18z"/>
<path d="M1492 2545 c0 -16 2 -22 5 -12 2 9 2 23 0 30 -3 6 -5 -1 -5 -18z"/>
<path d="M1530 2545 c0 -14 5 -25 10 -25 6 0 10 11 10 25 0 14 -4 25 -10 25
-5 0 -10 -11 -10 -25z"/>
<path d="M1582 2545 c0 -16 2 -22 5 -12 2 9 2 23 0 30 -3 6 -5 -1 -5 -18z"/>
<path d="M1621 2543 c0 -16 3 -22 6 -14 5 11 7 11 14 0 6 -10 9 -6 9 14 0 17
-5 27 -15 27 -10 0 -15 -9 -14 -27z"/>
<path d="M1671 2563 c0 -5 4 -17 9 -28 8 -18 9 -17 9 8 1 15 -3 27 -9 27 -5 0
-10 -3 -9 -7z"/>
<path d="M1710 2545 c0 -20 4 -26 18 -23 9 2 17 12 17 23 0 11 -8 21 -17 23
-14 3 -18 -3 -18 -23z"/>
<path d="M1772 2545 c0 -16 2 -22 5 -12 2 9 2 23 0 30 -3 6 -5 -1 -5 -18z"/>
<path d="M1804 2556 c-7 -19 3 -36 22 -36 10 0 14 8 12 22 -4 26 -26 36 -34
14z"/>
<path d="M1857 2564 c-15 -15 -7 -45 11 -42 9 2 17 12 17 22 0 20 -16 31 -28
20z"/>
<path d="M1912 2545 c0 -16 2 -22 5 -12 2 9 2 23 0 30 -3 6 -5 -1 -5 -18z"/>
<path d="M1944 2555 c-7 -18 3 -35 22 -35 8 0 14 10 14 25 0 27 -27 35 -36 10z"/>
<path d="M2002 2545 c0 -16 2 -22 5 -12 2 9 2 23 0 30 -3 6 -5 -1 -5 -18z"/>
<path d="M2041 2543 c0 -16 3 -22 6 -14 5 11 7 11 14 0 6 -10 9 -6 9 14 0 17
-5 27 -15 27 -10 0 -15 -9 -14 -27z"/>
<path d="M2102 2545 c0 -16 2 -22 5 -12 2 9 2 23 0 30 -3 6 -5 -1 -5 -18z"/>
<path d="M2137 2564 c-16 -16 -7 -44 14 -44 15 0 20 5 17 22 -3 22 -19 33 -31
22z"/>
<path d="M2180 2545 c0 -16 6 -25 15 -25 9 0 15 9 15 25 0 16 -6 25 -15 25 -9
0 -15 -9 -15 -25z"/>
<path d="M2231 2543 c0 -16 3 -22 6 -14 5 11 7 11 14 0 6 -10 9 -6 9 14 0 17
-5 27 -15 27 -10 0 -15 -9 -14 -27z"/>
<path d="M2280 2545 c0 -14 5 -25 10 -25 6 0 10 11 10 25 0 14 -4 25 -10 25
-5 0 -10 -11 -10 -25z"/>
<path d="M2320 2545 c0 -16 6 -25 15 -25 9 0 15 9 15 25 0 16 -6 25 -15 25 -9
0 -15 -9 -15 -25z"/>
<path d="M2382 2545 c0 -16 2 -22 5 -12 2 9 2 23 0 30 -3 6 -5 -1 -5 -18z"/>
<path d="M2417 2564 c-16 -16 -7 -44 14 -44 15 0 20 5 17 22 -3 22 -19 33 -31
22z"/>
<path d="M2460 2545 c0 -20 4 -26 18 -23 9 2 17 12 17 23 0 11 -8 21 -17 23
-14 3 -18 -3 -18 -23z"/>
<path d="M2522 2545 c0 -16 2 -22 5 -12 2 9 2 23 0 30 -3 6 -5 -1 -5 -18z"/>
<path d="M2554 2556 c-7 -19 3 -36 22 -36 10 0 14 8 12 22 -4 26 -26 36 -34
14z"/>
<path d="M2612 2545 c0 -16 2 -22 5 -12 2 9 2 23 0 30 -3 6 -5 -1 -5 -18z"/>
<path d="M2651 2543 c0 -16 3 -22 6 -14 5 11 7 11 14 0 6 -10 9 -6 9 14 0 17
-5 27 -15 27 -10 0 -15 -9 -14 -27z"/>
<path d="M2707 2563 c-3 -5 -1 -17 4 -28 7 -17 8 -17 8 8 1 27 -4 34 -12 20z"/>
<path d="M2740 2536 c0 -9 5 -16 10 -16 6 0 10 4 10 9 0 6 -4 13 -10 16 -5 3
-10 -1 -10 -9z"/>
<path d="M2846 2541 c-3 -5 4 -27 17 -49 16 -28 27 -38 36 -33 10 7 10 13 2
30 -7 11 -16 21 -21 21 -6 0 -9 3 -9 8 5 28 -12 44 -25 23z"/>
<path d="M3012 2515 c-19 -14 -20 -19 -10 -38 6 -12 26 -62 43 -110 17 -49 35
-88 38 -88 4 1 16 1 28 1 18 0 20 4 14 33 -10 43 -62 179 -77 200 -12 16 -15
16 -36 2z"/>
<path d="M2813 2502 c-8 -5 0 -30 28 -87 40 -80 52 -94 63 -77 5 8 -68 172
-76 172 -2 0 -8 -4 -15 -8z"/>
<path d="M1440 2455 c0 -19 4 -35 9 -35 12 0 81 -220 81 -259 0 -17 4 -31 9
-31 16 0 89 -233 83 -268 -3 -23 0 -32 10 -32 20 0 88 -224 81 -266 -4 -25 -1
-32 15 -36 11 -3 22 -18 26 -34 19 -80 23 -84 92 -84 l63 0 17 60 c13 46 21
60 35 60 13 0 19 7 19 24 0 13 -4 26 -9 28 -7 3 27 123 65 227 12 31 19 39 25
30 6 -9 8 0 7 26 -3 57 60 252 84 258 19 5 25 43 8 49 -7 2 -5 17 4 43 8 22
15 32 15 23 1 -10 8 -18 16 -18 20 0 20 47 0 52 -13 3 -13 7 -1 30 8 14 17 45
21 68 5 30 13 44 26 47 19 5 24 28 13 57 -9 23 -222 24 -230 1 -4 -8 -10 -12
-15 -10 -4 3 -8 -14 -8 -37 1 -42 -19 -114 -20 -75 -1 24 -34 18 -39 -6 -3
-12 4 -20 17 -24 17 -4 20 -10 15 -27 -4 -11 -13 -25 -21 -29 -10 -6 -13 -17
-9 -33 10 -39 -53 -251 -76 -257 -10 -3 -18 -14 -18 -27 0 -11 5 -18 10 -15
13 8 13 -5 -2 -59 l-12 -45 -13 37 c-16 46 -18 94 -2 72 8 -12 9 -10 7 10 -2
16 -9 25 -19 24 -20 -2 -85 221 -74 256 5 15 1 27 -14 41 -27 25 -27 45 0 52
25 7 22 40 -4 45 -12 2 -17 -3 -18 -20 -1 -17 -5 -12 -14 17 -7 22 -10 55 -7
73 4 25 1 32 -12 32 -9 0 -16 5 -16 10 0 6 -43 10 -110 10 l-110 0 0 -35z
m681 -63 c-7 -2 -18 1 -23 6 -8 8 -4 9 13 5 13 -4 18 -8 10 -11z m3 -21 c4 -5
-3 -7 -14 -4 -23 6 -26 13 -6 13 8 0 17 -4 20 -9z m-2 -53 c-8 -8 -9 -4 -5 13
4 13 8 18 11 10 2 -7 -1 -18 -6 -23z m-25 -4 c-3 -3 -12 -4 -19 -1 -8 3 -5 6
6 6 11 1 17 -2 13 -5z m-29 -21 c-10 -2 -18 -9 -18 -15 0 -6 -3 -9 -6 -5 -10
10 6 27 24 26 15 -1 15 -2 0 -6z m-31 -119 c-3 -3 -12 -4 -19 -1 -8 3 -5 6 6
6 11 1 17 -2 13 -5z m3 -29 c0 -8 -4 -15 -10 -15 -5 0 -7 7 -4 15 4 8 8 15 10
15 2 0 4 -7 4 -15z"/>
<path d="M997 2433 c-67 -155 -112 -413 -74 -426 35 -12 47 5 49 67 1 42 3 49
5 24 4 -38 27 -54 30 -20 1 9 4 29 7 44 5 31 -11 48 -25 27 -30 -48 19 162 59
254 l21 48 -25 9 c-14 6 -27 10 -28 10 -2 0 -10 -17 -19 -37z"/>
<path d="M1214 2461 c3 -5 -1 -12 -10 -15 -18 -7 -10 -26 12 -26 8 0 14 10 14
25 0 14 -5 25 -11 25 -5 0 -8 -4 -5 -9z"/>
<path d="M1252 2445 c0 -16 2 -22 5 -12 2 9 2 23 0 30 -3 6 -5 -1 -5 -18z"/>
<path d="M1290 2445 c0 -16 6 -25 15 -25 9 0 15 9 15 25 0 16 -6 25 -15 25 -9
0 -15 -9 -15 -25z"/>
<path d="M1348 2445 c2 -14 6 -25 8 -25 2 0 4 11 4 25 0 14 -4 25 -9 25 -4 0
-6 -11 -3 -25z"/>
<path d="M1387 2464 c-16 -16 -7 -44 14 -44 15 0 20 5 17 22 -3 22 -19 33 -31
22z"/>
<path d="M1710 2445 c0 -20 4 -26 18 -23 9 2 17 12 17 23 0 11 -8 21 -17 23
-14 3 -18 -3 -18 -23z"/>
<path d="M1772 2445 c0 -16 2 -22 5 -12 2 9 2 23 0 30 -3 6 -5 -1 -5 -18z"/>
<path d="M1804 2455 c-7 -18 3 -35 22 -35 8 0 14 10 14 25 0 27 -27 35 -36 10z"/>
<path d="M1850 2445 c0 -20 4 -26 18 -23 9 2 17 12 17 23 0 11 -8 21 -17 23
-14 3 -18 -3 -18 -23z"/>
<path d="M1912 2445 c0 -16 2 -22 5 -12 2 9 2 23 0 30 -3 6 -5 -1 -5 -18z"/>
<path d="M1944 2455 c-7 -18 3 -35 22 -35 8 0 14 10 14 25 0 27 -27 35 -36 10z"/>
<path d="M2280 2445 c0 -14 5 -25 10 -25 6 0 10 11 10 25 0 14 -4 25 -10 25
-5 0 -10 -11 -10 -25z"/>
<path d="M2320 2445 c0 -16 6 -25 15 -25 9 0 15 9 15 25 0 16 -6 25 -15 25 -9
0 -15 -9 -15 -25z"/>
<path d="M2382 2445 c0 -16 2 -22 5 -12 2 9 2 23 0 30 -3 6 -5 -1 -5 -18z"/>
<path d="M2414 2455 c-7 -18 3 -35 22 -35 8 0 14 10 14 25 0 27 -27 35 -36 10z"/>
<path d="M2460 2445 c0 -20 4 -26 18 -23 9 2 17 12 17 23 0 11 -8 21 -17 23
-14 3 -18 -3 -18 -23z"/>
<path d="M2522 2445 c0 -16 2 -22 5 -12 2 9 2 23 0 30 -3 6 -5 -1 -5 -18z"/>
<path d="M2554 2455 c-7 -18 3 -35 22 -35 8 0 14 10 14 25 0 27 -27 35 -36 10z"/>
<path d="M2612 2445 c0 -16 2 -22 5 -12 2 9 2 23 0 30 -3 6 -5 -1 -5 -18z"/>
<path d="M2650 2445 c0 -16 6 -25 15 -25 9 0 15 9 15 25 0 16 -6 25 -15 25 -9
0 -15 -9 -15 -25z"/>
<path d="M2701 2463 c0 -5 4 -17 9 -28 8 -18 9 -17 9 8 1 15 -3 27 -9 27 -5 0
-10 -3 -9 -7z"/>
<path d="M2740 2445 c0 -20 4 -26 18 -23 9 2 17 12 17 23 0 11 -8 21 -17 23
-14 3 -18 -3 -18 -23z"/>
<path d="M2790 2447 c0 -17 5 -27 15 -27 19 0 19 9 0 34 -14 19 -15 19 -15 -7z"/>
<path d="M896 2383 c-21 -66 -46 -167 -46 -187 0 -11 9 -16 29 -16 25 0 29 4
35 40 3 22 17 74 30 115 23 72 23 76 6 85 -31 17 -38 12 -54 -37z"/>
<path d="M1065 2410 c3 -5 2 -10 -4 -10 -5 0 -8 -9 -6 -20 2 -11 -1 -20 -6
-20 -6 0 -7 -4 -4 -10 10 -15 23 -12 29 8 2 9 7 27 11 40 5 16 2 22 -10 22 -9
0 -13 -4 -10 -10z"/>
<path d="M1091 2343 c-8 -21 -16 -44 -18 -50 -3 -7 2 -13 11 -13 15 0 46 58
46 86 0 29 -26 13 -39 -23z"/>
<path d="M1157 2363 c-13 -12 -7 -43 8 -43 9 0 15 9 15 25 0 24 -10 32 -23 18z"/>
<path d="M1194 2355 c-7 -18 3 -35 22 -35 8 0 14 10 14 25 0 27 -27 35 -36 10z"/>
<path d="M1252 2345 c0 -16 2 -22 5 -12 2 9 2 23 0 30 -3 6 -5 -1 -5 -18z"/>
<path d="M1290 2345 c0 -16 6 -25 15 -25 9 0 15 9 15 25 0 16 -6 25 -15 25 -9
0 -15 -9 -15 -25z"/>
<path d="M1348 2345 c2 -14 6 -25 8 -25 2 0 4 11 4 25 0 14 -4 25 -9 25 -4 0
-6 -11 -3 -25z"/>
<path d="M1380 2344 c0 -33 33 -30 38 4 3 17 -2 22 -17 22 -16 0 -21 -6 -21
-26z"/>
<path d="M1442 2345 c0 -16 2 -22 5 -12 2 9 2 23 0 30 -3 6 -5 -1 -5 -18z"/>
<path d="M1768 2345 c2 -14 6 -25 8 -25 2 0 4 11 4 25 0 14 -4 25 -9 25 -4 0
-6 -11 -3 -25z"/>
<path d="M1804 2355 c-7 -18 3 -35 22 -35 8 0 14 10 14 25 0 27 -27 35 -36 10z"/>
<path d="M1850 2345 c0 -20 4 -26 18 -23 9 2 17 12 17 23 0 11 -8 21 -17 23
-14 3 -18 -3 -18 -23z"/>
<path d="M1912 2345 c0 -16 2 -22 5 -12 2 9 2 23 0 30 -3 6 -5 -1 -5 -18z"/>
<path d="M2230 2345 c0 -16 6 -25 15 -25 9 0 15 9 15 25 0 16 -6 25 -15 25 -9
0 -15 -9 -15 -25z"/>
<path d="M2280 2345 c0 -14 5 -25 10 -25 6 0 10 11 10 25 0 14 -4 25 -10 25
-5 0 -10 -11 -10 -25z"/>
<path d="M2320 2345 c0 -16 6 -25 15 -25 9 0 15 9 15 25 0 16 -6 25 -15 25 -9
0 -15 -9 -15 -25z"/>
<path d="M2378 2345 c2 -14 6 -25 8 -25 2 0 4 11 4 25 0 14 -4 25 -9 25 -4 0
-6 -11 -3 -25z"/>
<path d="M2414 2355 c-7 -18 3 -35 22 -35 8 0 14 10 14 25 0 27 -27 35 -36 10z"/>
<path d="M2460 2345 c0 -20 4 -26 18 -23 9 2 17 12 17 23 0 11 -8 21 -17 23
-14 3 -18 -3 -18 -23z"/>
<path d="M2518 2345 c2 -14 6 -25 8 -25 2 0 4 11 4 25 0 14 -4 25 -9 25 -4 0
-6 -11 -3 -25z"/>
<path d="M2554 2355 c-7 -18 3 -35 22 -35 8 0 14 10 14 25 0 27 -27 35 -36 10z"/>
<path d="M2612 2345 c0 -16 2 -22 5 -12 2 9 2 23 0 30 -3 6 -5 -1 -5 -18z"/>
<path d="M2650 2345 c0 -16 6 -25 15 -25 9 0 15 9 15 25 0 16 -6 25 -15 25 -9
0 -15 -9 -15 -25z"/>
<path d="M2708 2345 c2 -14 6 -25 8 -25 2 0 4 11 4 25 0 14 -4 25 -9 25 -4 0
-6 -11 -3 -25z"/>
<path d="M2740 2345 c0 -20 4 -26 18 -23 9 2 17 12 17 23 0 11 -8 21 -17 23
-14 3 -18 -3 -18 -23z"/>
<path d="M2790 2345 c0 -16 6 -25 15 -25 9 0 15 9 15 25 0 16 -6 25 -15 25 -9
0 -15 -9 -15 -25z"/>
<path d="M2848 2343 c5 -21 7 -23 10 -9 2 10 0 22 -6 28 -6 6 -7 0 -4 -19z"/>
<path d="M2903 2312 c-15 -9 5 -102 22 -102 21 0 23 11 9 57 -16 54 -16 54
-31 45z"/>
<path d="M2964 2249 c3 -17 6 -35 6 -40 0 -5 7 -9 15 -9 12 0 14 7 9 28 -3 15
-6 33 -6 40 -1 6 -8 12 -16 12 -11 0 -13 -8 -8 -31z"/>
<path d="M1151 2248 c-1 -19 4 -28 14 -28 10 0 15 10 15 28 0 19 -3 23 -9 13
-7 -11 -9 -11 -14 0 -3 8 -6 2 -6 -13z"/>
<path d="M1194 2255 c-7 -18 3 -35 22 -35 8 0 14 10 14 25 0 27 -27 35 -36 10z"/>
<path d="M1252 2245 c0 -16 2 -22 5 -12 2 9 2 23 0 30 -3 6 -5 -1 -5 -18z"/>
<path d="M1291 2248 c-1 -19 4 -28 14 -28 10 0 15 10 15 28 0 19 -3 23 -9 13
-7 -11 -9 -11 -14 0 -3 8 -6 2 -6 -13z"/>
<path d="M1348 2245 c2 -14 6 -25 8 -25 2 0 4 11 4 25 0 14 -4 25 -9 25 -4 0
-6 -11 -3 -25z"/>
<path d="M1382 2248 c2 -13 10 -23 18 -23 8 0 16 10 18 23 3 17 -2 22 -18 22
-16 0 -21 -5 -18 -22z"/>
<path d="M1442 2245 c0 -16 2 -22 5 -12 2 9 2 23 0 30 -3 6 -5 -1 -5 -18z"/>
<path d="M1488 2245 c2 -14 6 -25 8 -25 2 0 4 11 4 25 0 14 -4 25 -9 25 -4 0
-6 -11 -3 -25z"/>
<path d="M1768 2245 c2 -14 6 -25 8 -25 2 0 4 11 4 25 0 14 -4 25 -9 25 -4 0
-6 -11 -3 -25z"/>
<path d="M1804 2255 c-7 -18 3 -35 22 -35 8 0 14 10 14 25 0 27 -27 35 -36 10z"/>
<path d="M1850 2245 c0 -20 4 -26 18 -23 9 2 17 12 17 23 0 11 -8 21 -17 23
-14 3 -18 -3 -18 -23z"/>
<path d="M1912 2245 c0 -16 2 -22 5 -12 2 9 2 23 0 30 -3 6 -5 -1 -5 -18z"/>
<path d="M2230 2245 c0 -16 6 -25 15 -25 9 0 15 9 15 25 0 16 -6 25 -15 25 -9
0 -15 -9 -15 -25z"/>
<path d="M2280 2245 c0 -14 5 -25 10 -25 6 0 10 11 10 25 0 14 -4 25 -10 25
-5 0 -10 -11 -10 -25z"/>
<path d="M2320 2245 c0 -16 6 -25 15 -25 9 0 15 9 15 25 0 16 -6 25 -15 25 -9
0 -15 -9 -15 -25z"/>
<path d="M2378 2245 c2 -14 6 -25 8 -25 2 0 4 11 4 25 0 14 -4 25 -9 25 -4 0
-6 -11 -3 -25z"/>
<path d="M2412 2248 c2 -13 10 -23 18 -23 8 0 16 10 18 23 3 17 -2 22 -18 22
-16 0 -21 -5 -18 -22z"/>
<path d="M2460 2245 c0 -20 4 -26 18 -23 9 2 17 12 17 23 0 11 -8 21 -17 23
-14 3 -18 -3 -18 -23z"/>
<path d="M2518 2245 c2 -14 6 -25 8 -25 2 0 4 11 4 25 0 14 -4 25 -9 25 -4 0
-6 -11 -3 -25z"/>
<path d="M2554 2255 c-7 -18 3 -35 22 -35 8 0 14 10 14 25 0 27 -27 35 -36 10z"/>
<path d="M2612 2245 c0 -16 2 -22 5 -12 2 9 2 23 0 30 -3 6 -5 -1 -5 -18z"/>
<path d="M2651 2248 c-1 -19 4 -28 14 -28 10 0 15 10 15 28 0 19 -3 23 -9 13
-7 -11 -9 -11 -14 0 -3 8 -6 2 -6 -13z"/>
<path d="M2708 2245 c2 -14 6 -25 8 -25 2 0 4 11 4 25 0 14 -4 25 -9 25 -4 0
-6 -11 -3 -25z"/>
<path d="M2742 2248 c2 -13 10 -23 18 -23 8 0 16 10 18 23 3 17 -2 22 -18 22
-16 0 -21 -5 -18 -22z"/>
<path d="M2791 2248 c-1 -19 4 -28 14 -28 10 0 15 10 15 28 0 19 -3 23 -9 13
-7 -11 -9 -11 -14 0 -3 8 -6 2 -6 -13z"/>
<path d="M2848 2245 c2 -14 6 -25 8 -25 2 0 4 11 4 25 0 14 -4 25 -9 25 -4 0
-6 -11 -3 -25z"/>
<path d="M2880 2253 c0 -12 5 -25 10 -28 13 -8 13 15 0 35 -8 12 -10 11 -10
-7z"/>
<path d="M1051 2208 c-23 -120 -24 -138 -7 -138 9 0 16 1 16 3 1 1 7 38 15 82
18 100 18 105 1 105 -10 0 -18 -18 -25 -52z"/>
<path d="M3089 2245 c-3 -2 1 -44 9 -92 8 -56 11 -129 8 -199 l-5 -112 25 -5
c13 -2 26 -1 29 3 20 32 12 317 -11 393 -5 15 -43 24 -55 12z"/>
<path d="M724 2205 c-8 -34 7 -45 64 -45 38 0 42 2 42 24 0 25 -6 29 -67 41
-29 6 -33 4 -39 -20z"/>
<path d="M2923 2168 c4 -14 10 -57 13 -96 5 -51 11 -72 20 -72 15 0 18 61 6
140 -5 33 -12 46 -26 48 -15 3 -18 0 -13 -20z"/>
<path d="M845 2160 c-20 -32 -12 -317 11 -392 5 -16 43 -25 55 -13 3 2 -1 44
-9 92 -8 56 -11 129 -8 199 l5 112 -25 5 c-13 2 -26 1 -29 -3z"/>
<path d="M1112 2145 c0 -16 2 -22 5 -12 2 9 2 23 0 30 -3 6 -5 -1 -5 -18z"/>
<path d="M1151 2148 c-1 -19 4 -28 14 -28 10 0 15 10 15 28 0 19 -3 23 -9 13
-7 -11 -9 -11 -14 0 -3 8 -6 2 -6 -13z"/>
<path d="M1193 2154 c-7 -18 11 -39 26 -30 17 11 13 46 -4 46 -9 0 -18 -7 -22
-16z"/>
<path d="M1252 2150 c0 -14 2 -19 5 -12 2 6 2 18 0 25 -3 6 -5 1 -5 -13z"/>
<path d="M1291 2148 c-1 -19 4 -28 14 -28 10 0 15 10 15 28 0 19 -3 23 -9 13
-7 -11 -9 -11 -14 0 -3 8 -6 2 -6 -13z"/>
<path d="M1348 2145 c2 -14 6 -25 8 -25 2 0 4 11 4 25 0 14 -4 25 -9 25 -4 0
-6 -11 -3 -25z"/>
<path d="M1382 2148 c2 -13 10 -23 18 -23 8 0 16 10 18 23 3 17 -2 22 -18 22
-16 0 -21 -5 -18 -22z"/>
<path d="M1442 2145 c0 -16 2 -22 5 -12 2 9 2 23 0 30 -3 6 -5 -1 -5 -18z"/>
<path d="M1488 2145 c2 -14 6 -25 8 -25 2 0 4 11 4 25 0 14 -4 25 -9 25 -4 0
-6 -11 -3 -25z"/>
<path d="M1768 2145 c2 -14 6 -25 8 -25 2 0 4 11 4 25 0 14 -4 25 -9 25 -4 0
-6 -11 -3 -25z"/>
<path d="M1802 2148 c2 -13 10 -23 18 -23 8 0 16 10 18 23 3 17 -2 22 -18 22
-16 0 -21 -5 -18 -22z"/>
<path d="M1852 2148 c2 -13 10 -23 18 -23 8 0 16 10 18 23 3 17 -2 22 -18 22
-16 0 -21 -5 -18 -22z"/>
<path d="M1912 2145 c0 -16 2 -22 5 -12 2 9 2 23 0 30 -3 6 -5 -1 -5 -18z"/>
<path d="M2181 2148 c-1 -19 4 -28 14 -28 10 0 15 10 15 28 0 19 -3 23 -9 13
-7 -11 -9 -11 -14 0 -3 8 -6 2 -6 -13z"/>
<path d="M2230 2143 c0 -14 6 -23 15 -23 9 0 15 9 15 23 0 14 -6 24 -15 24 -9
0 -15 -10 -15 -24z"/>
<path d="M2280 2150 c0 -11 5 -20 10 -20 6 0 10 9 10 20 0 11 -4 20 -10 20 -5
0 -10 -9 -10 -20z"/>
<path d="M2323 2151 c3 -36 27 -39 27 -4 0 19 -3 24 -9 14 -7 -11 -10 -11 -15
0 -3 8 -4 3 -3 -10z"/>
<path d="M2378 2145 c2 -14 6 -25 8 -25 2 0 4 11 4 25 0 14 -4 25 -9 25 -4 0
-6 -11 -3 -25z"/>
<path d="M2412 2148 c2 -13 10 -23 18 -23 8 0 16 10 18 23 3 17 -2 22 -18 22
-16 0 -21 -5 -18 -22z"/>
<path d="M2461 2153 c-1 -12 4 -25 10 -29 16 -10 33 12 25 33 -6 14 -9 15 -15
4 -7 -11 -9 -11 -14 0 -3 8 -6 5 -6 -8z"/>
<path d="M2518 2145 c2 -14 6 -25 8 -25 2 0 4 11 4 25 0 14 -4 25 -9 25 -4 0
-6 -11 -3 -25z"/>
<path d="M2552 2148 c2 -13 10 -23 18 -23 8 0 16 10 18 23 3 17 -2 22 -18 22
-16 0 -21 -5 -18 -22z"/>
<path d="M2612 2145 c0 -16 2 -22 5 -12 2 9 2 23 0 30 -3 6 -5 -1 -5 -18z"/>
<path d="M2651 2148 c-1 -19 4 -28 14 -28 10 0 15 10 15 28 0 19 -3 23 -9 13
-7 -11 -9 -11 -14 0 -3 8 -6 2 -6 -13z"/>
<path d="M2708 2145 c2 -14 6 -25 8 -25 2 0 4 11 4 25 0 14 -4 25 -9 25 -4 0
-6 -11 -3 -25z"/>
<path d="M2742 2148 c2 -13 10 -23 18 -23 8 0 16 10 18 23 3 17 -2 22 -18 22
-16 0 -21 -5 -18 -22z"/>
<path d="M2791 2148 c-1 -19 4 -28 14 -28 10 0 15 10 15 28 0 19 -3 23 -9 13
-7 -11 -9 -11 -14 0 -3 8 -6 2 -6 -13z"/>
<path d="M2848 2145 c2 -14 6 -25 8 -25 2 0 4 11 4 25 0 14 -4 25 -9 25 -4 0
-6 -11 -3 -25z"/>
<path d="M2880 2151 c0 -24 18 -37 31 -24 13 13 1 43 -17 43 -8 0 -14 -9 -14
-19z"/>
<path d="M2206 2085 c-4 -16 -11 -23 -18 -19 -8 5 -9 -2 -6 -22 8 -39 -5 -69
-28 -69 -12 0 -20 -8 -22 -21 -3 -20 1 -21 126 -20 l130 1 -3 70 c-1 39 -3 78
-4 88 -1 15 -12 17 -85 17 -81 0 -84 -1 -90 -25z"/>
<path d="M2402 2023 l3 -88 43 0 c50 -1 59 8 41 41 -10 20 -10 29 1 49 10 20
11 28 2 37 -7 7 -12 20 -12 30 0 14 -8 18 -40 18 l-41 0 3 -87z"/>
<path d="M1112 2050 c0 -14 2 -19 5 -12 2 6 2 18 0 25 -3 6 -5 1 -5 -13z"/>
<path d="M1153 2050 c1 -14 7 -25 12 -25 6 0 11 11 13 25 2 18 0 21 -6 11 -8
-11 -11 -11 -16 0 -3 8 -4 3 -3 -11z"/>
<path d="M1193 2053 c-7 -18 12 -38 26 -29 6 4 11 15 11 25 0 21 -30 24 -37 4z"/>
<path d="M1252 2050 c0 -14 2 -19 5 -12 2 6 2 18 0 25 -3 6 -5 1 -5 -13z"/>
<path d="M1293 2051 c3 -36 27 -39 27 -4 0 19 -3 24 -9 14 -7 -11 -10 -11 -15
0 -3 8 -4 3 -3 -10z"/>
<path d="M1348 2045 c2 -14 6 -25 8 -25 2 0 4 11 4 25 0 14 -4 25 -9 25 -4 0
-6 -11 -3 -25z"/>
<path d="M1382 2048 c2 -13 10 -23 18 -23 8 0 16 10 18 23 3 17 -2 22 -18 22
-16 0 -21 -5 -18 -22z"/>
<path d="M1442 2045 c0 -16 2 -22 5 -12 2 9 2 23 0 30 -3 6 -5 -1 -5 -18z"/>
<path d="M1488 2045 c2 -14 6 -25 8 -25 2 0 4 11 4 25 0 14 -4 25 -9 25 -4 0
-6 -11 -3 -25z"/>
<path d="M1530 2050 c0 -11 5 -20 10 -20 6 0 10 9 10 20 0 11 -4 20 -10 20 -5
0 -10 -9 -10 -20z"/>
<path d="M1802 2047 c4 -28 32 -29 36 -2 2 15 -3 21 -18 22 -16 1 -21 -3 -18
-20z"/>
<path d="M1852 2050 c4 -31 32 -33 36 -2 2 12 -1 22 -7 22 -6 0 -11 -6 -11
-12 0 -9 -4 -8 -11 2 -8 12 -9 10 -7 -10z"/>
<path d="M2132 2048 c2 -13 10 -23 18 -23 8 0 16 10 18 23 3 17 -2 22 -18 22
-16 0 -21 -5 -18 -22z"/>
<path d="M2518 2045 c2 -14 6 -25 8 -25 2 0 4 11 4 25 0 14 -4 25 -9 25 -4 0
-6 -11 -3 -25z"/>
<path d="M2552 2048 c2 -13 10 -23 18 -23 8 0 16 10 18 23 3 17 -2 22 -18 22
-16 0 -21 -5 -18 -22z"/>
<path d="M2612 2050 c0 -14 2 -19 5 -12 2 6 2 18 0 25 -3 6 -5 1 -5 -13z"/>
<path d="M2653 2050 c1 -14 7 -25 12 -25 6 0 11 11 13 25 2 18 0 21 -6 11 -8
-11 -11 -11 -16 0 -3 8 -4 3 -3 -11z"/>
<path d="M2707 2050 c3 -11 7 -20 9 -20 2 0 4 9 4 20 0 11 -4 20 -9 20 -5 0
-7 -9 -4 -20z"/>
<path d="M2742 2050 c4 -31 32 -33 36 -2 2 12 -1 22 -7 22 -6 0 -11 -6 -11
-12 0 -9 -4 -8 -11 2 -8 12 -9 10 -7 -10z"/>
<path d="M2793 2051 c3 -36 27 -39 27 -4 0 19 -3 24 -9 14 -7 -11 -10 -11 -15
0 -3 8 -4 3 -3 -10z"/>
<path d="M2848 2045 c2 -14 6 -25 8 -25 2 0 4 11 4 25 0 14 -4 25 -9 25 -4 0
-6 -11 -3 -25z"/>
<path d="M2882 2048 c2 -12 10 -23 18 -23 22 0 19 39 -3 43 -15 3 -18 -1 -15
-20z"/>
<path d="M1031 1953 c1 -89 12 -137 33 -141 15 -3 18 0 13 20 -4 14 -10 57
-13 96 -5 51 -11 72 -20 72 -10 0 -14 -14 -13 -47z"/>
<path d="M3048 1992 c-15 -3 -18 -15 -20 -65 -1 -42 -3 -50 -5 -24 -4 37 -27
53 -30 20 -1 -10 -4 -30 -7 -45 -5 -31 11 -48 25 -27 30 48 -19 -162 -59 -254
l-21 -48 25 -9 c14 -6 27 -10 28 -10 5 0 34 70 56 135 25 73 50 211 50 275 0
49 -9 60 -42 52z"/>
<path d="M1156 1973 c-3 -3 -6 -16 -6 -27 0 -16 2 -18 9 -7 7 11 9 11 14 0 3
-8 6 -5 6 8 1 23 -12 37 -23 26z"/>
<path d="M1194 1965 c-4 -9 -2 -21 5 -28 8 -8 11 -7 11 4 0 12 2 12 11 -1 8
-12 9 -10 7 9 -4 29 -25 39 -34 16z"/>
<path d="M1297 1973 c-13 -12 -7 -40 8 -40 9 0 15 10 15 24 0 22 -10 30 -23
16z"/>
<path d="M1387 1974 c-16 -16 -7 -44 14 -44 15 0 20 5 17 22 -3 22 -19 33 -31
22z"/>
<path d="M1442 1955 c0 -16 2 -22 5 -12 2 9 2 23 0 30 -3 6 -5 -1 -5 -18z"/>
<path d="M1487 1973 c-3 -5 -1 -17 4 -28 7 -17 8 -17 8 8 1 27 -4 34 -12 20z"/>
<path d="M2522 1955 c0 -16 2 -22 5 -12 2 9 2 23 0 30 -3 6 -5 -1 -5 -18z"/>
<path d="M2557 1974 c-11 -11 -8 -44 3 -44 6 0 10 6 10 13 0 8 4 7 11 -3 8
-12 9 -10 7 9 -3 25 -19 37 -31 25z"/>
<path d="M2656 1973 c-3 -3 -6 -16 -6 -27 0 -16 2 -18 9 -7 7 11 9 11 14 0 3
-8 6 -5 6 8 1 23 -12 37 -23 26z"/>
<path d="M2747 1974 c-16 -16 -7 -44 14 -44 15 0 20 5 17 22 -3 22 -19 33 -31
22z"/>
<path d="M2797 1973 c-13 -12 -7 -40 8 -40 9 0 15 10 15 24 0 22 -10 30 -23
16z"/>
<path d="M2847 1973 c-3 -5 -1 -17 4 -28 7 -17 8 -17 8 8 1 27 -4 34 -12 20z"/>
<path d="M2887 1974 c-15 -15 -7 -45 11 -42 9 2 17 12 17 22 0 20 -16 31 -28
20z"/>
<path d="M1112 1950 c0 -14 2 -19 5 -12 2 6 2 18 0 25 -3 6 -5 1 -5 -13z"/>
<path d="M1252 1950 c0 -14 2 -19 5 -12 2 6 2 18 0 25 -3 6 -5 1 -5 -13z"/>
<path d="M1347 1950 c3 -11 7 -20 9 -20 2 0 4 9 4 20 0 11 -4 20 -9 20 -5 0
-7 -9 -4 -20z"/>
<path d="M1530 1950 c0 -11 5 -20 10 -20 6 0 10 9 10 20 0 11 -4 20 -10 20 -5
0 -10 -9 -10 -20z"/>
<path d="M1582 1950 c0 -14 2 -19 5 -12 2 6 2 18 0 25 -3 6 -5 1 -5 -13z"/>
<path d="M2097 1950 c3 -11 7 -20 9 -20 2 0 4 9 4 20 0 11 -4 20 -9 20 -5 0
-7 -9 -4 -20z"/>
<path d="M2612 1950 c0 -14 2 -19 5 -12 2 6 2 18 0 25 -3 6 -5 1 -5 -13z"/>
<path d="M2707 1950 c3 -11 7 -20 9 -20 2 0 4 9 4 20 0 11 -4 20 -9 20 -5 0
-7 -9 -4 -20z"/>
<path d="M2940 1928 c-1 -2 -7 -39 -15 -83 -18 -100 -18 -105 -1 -105 14 0 25
38 41 148 6 34 4 42 -9 42 -9 0 -16 -1 -16 -2z"/>
<path d="M1112 1855 c0 -16 2 -22 5 -12 2 9 2 23 0 30 -3 6 -5 -1 -5 -18z"/>
<path d="M1151 1853 c0 -16 3 -22 6 -14 5 11 7 11 14 0 6 -10 9 -6 9 14 0 17
-5 27 -15 27 -10 0 -15 -9 -14 -27z"/>
<path d="M1194 1865 c-4 -9 -2 -21 5 -28 8 -8 11 -7 11 4 0 12 2 12 11 -1 8
-12 9 -10 7 9 -4 29 -25 39 -34 16z"/>
<path d="M1252 1855 c0 -16 2 -22 5 -12 2 9 2 23 0 30 -3 6 -5 -1 -5 -18z"/>
<path d="M1291 1853 c0 -16 3 -22 6 -14 5 11 7 11 14 0 6 -10 9 -6 9 14 0 17
-5 27 -15 27 -10 0 -15 -9 -14 -27z"/>
<path d="M1347 1873 c-3 -5 -1 -17 4 -28 7 -17 8 -17 8 8 1 27 -4 34 -12 20z"/>
<path d="M1387 1874 c-16 -16 -7 -44 14 -44 15 0 20 5 17 22 -3 22 -19 33 -31
22z"/>
<path d="M1442 1855 c0 -16 2 -22 5 -12 2 9 2 23 0 30 -3 6 -5 -1 -5 -18z"/>
<path d="M1492 1855 c0 -16 2 -22 5 -12 2 9 2 23 0 30 -3 6 -5 -1 -5 -18z"/>
<path d="M1582 1855 c0 -16 2 -22 5 -12 2 9 2 23 0 30 -3 6 -5 -1 -5 -18z"/>
<path d="M2097 1873 c-3 -5 -1 -17 4 -28 7 -17 8 -17 8 8 1 27 -4 34 -12 20z"/>
<path d="M2135 1868 c-2 -7 -6 -30 -10 -50 -3 -21 -10 -38 -15 -38 -6 0 -10
-12 -11 -27 0 -16 -4 -37 -8 -48 -5 -11 -5 -24 -1 -30 4 -5 10 -19 13 -30 4
-15 5 -13 6 8 1 34 21 36 21 2 0 -37 37 -35 43 3 l4 27 2 -27 c1 -32 31 -40
31 -8 0 11 5 20 10 20 6 0 10 -9 10 -20 0 -11 7 -20 15 -20 9 0 15 10 15 26 0
14 4 23 10 19 6 -3 10 -15 10 -26 0 -10 5 -19 10 -19 6 0 10 11 10 25 0 14 5
25 10 25 6 0 10 -11 10 -25 0 -32 27 -34 32 -2 4 28 21 25 28 -5 3 -13 6 36 6
107 0 72 -2 122 -4 113 -4 -22 -32 -24 -32 -3 0 20 -17 19 -29 -2 -9 -16 -12
-16 -22 -3 -8 11 -12 12 -16 3 -7 -18 -23 -16 -23 2 0 8 -7 15 -15 15 -8 0
-15 -7 -15 -15 0 -8 -4 -15 -10 -15 -5 0 -10 7 -10 15 0 8 -7 15 -15 15 -8 0
-15 -8 -15 -17 -1 -17 -1 -17 -11 0 -12 20 -28 22 -34 5z"/>
<path d="M2410 1861 c-11 -22 -12 -161 -1 -201 10 -36 39 -38 44 -3 l4 28 2
-27 c0 -18 7 -28 16 -28 20 0 31 28 16 43 -15 15 -14 50 1 65 10 10 10 17 0
32 -6 11 -12 27 -12 35 0 8 6 24 12 35 10 15 10 22 0 32 -11 11 -16 10 -26 -5
-12 -15 -14 -16 -20 -2 -8 21 -23 19 -36 -4z"/>
<path d="M2522 1855 c0 -16 2 -22 5 -12 2 9 2 23 0 30 -3 6 -5 -1 -5 -18z"/>
<path d="M2557 1874 c-16 -16 -7 -44 14 -44 15 0 20 5 17 22 -3 22 -19 33 -31
22z"/>
<path d="M2612 1855 c0 -16 2 -22 5 -12 2 9 2 23 0 30 -3 6 -5 -1 -5 -18z"/>
<path d="M2651 1853 c0 -16 3 -22 6 -14 5 11 7 11 14 0 6 -10 9 -6 9 14 0 17
-5 27 -15 27 -10 0 -15 -9 -14 -27z"/>
<path d="M2707 1873 c-3 -5 -1 -17 4 -28 7 -17 8 -17 8 8 1 27 -4 34 -12 20z"/>
<path d="M2747 1874 c-16 -16 -7 -44 14 -44 15 0 20 5 17 22 -3 22 -19 33 -31
22z"/>
<path d="M2791 1853 c0 -16 3 -22 6 -14 5 11 7 11 14 0 6 -10 9 -6 9 14 0 17
-5 27 -15 27 -10 0 -15 -9 -14 -27z"/>
<path d="M2847 1873 c-3 -5 -1 -17 4 -28 7 -17 8 -17 8 8 1 27 -4 34 -12 20z"/>
<path d="M2887 1873 c-13 -12 -7 -43 9 -43 8 0 13 4 10 9 -4 5 -1 11 6 13 6 2
8 10 4 16 -8 13 -19 15 -29 5z"/>
<path d="M1530 1850 c0 -11 5 -20 10 -20 6 0 10 9 10 20 0 11 -4 20 -10 20 -5
0 -10 -9 -10 -20z"/>
<path d="M3170 1816 c0 -25 6 -29 67 -41 29 -6 33 -4 39 20 8 34 -7 45 -63 45
-39 0 -43 -2 -43 -24z"/>
<path d="M953 1812 c-30 -5 -29 -25 3 -131 24 -79 104 -250 139 -295 15 -20
42 -16 50 7 3 7 -15 48 -40 92 -49 86 -86 177 -110 269 -8 32 -16 60 -17 60
-2 1 -13 0 -25 -2z"/>
<path d="M3086 1780 c-3 -22 -17 -74 -30 -116 l-24 -75 25 -12 c19 -9 26 -8
33 3 10 17 49 157 57 206 5 32 4 34 -24 34 -28 0 -31 -4 -37 -40z"/>
<path d="M1006 1773 c3 -16 6 -34 6 -40 1 -7 8 -13 16 -13 11 0 13 8 8 31 -3
17 -6 35 -6 40 0 5 -7 9 -15 9 -12 0 -14 -7 -9 -27z"/>
<path d="M1057 1783 c-2 -5 2 -29 10 -55 10 -35 18 -46 29 -41 8 3 13 11 10
19 -3 7 -8 29 -12 48 -6 32 -26 48 -37 29z"/>
<path d="M1151 1753 c0 -16 3 -22 6 -14 5 11 7 11 14 0 6 -10 9 -6 9 14 0 17
-5 27 -15 27 -10 0 -15 -9 -14 -27z"/>
<path d="M1194 1765 c-7 -18 3 -35 22 -35 8 0 14 10 14 25 0 27 -27 35 -36 10z"/>
<path d="M1252 1755 c0 -16 2 -22 5 -12 2 9 2 23 0 30 -3 6 -5 -1 -5 -18z"/>
<path d="M1290 1755 c0 -16 6 -25 15 -25 9 0 15 9 15 25 0 16 -6 25 -15 25 -9
0 -15 -9 -15 -25z"/>
<path d="M1352 1755 c0 -16 2 -22 5 -12 2 9 2 23 0 30 -3 6 -5 -1 -5 -18z"/>
<path d="M1387 1774 c-16 -16 -7 -44 14 -44 15 0 20 5 17 22 -3 22 -19 33 -31
22z"/>
<path d="M1442 1755 c0 -16 2 -22 5 -12 2 9 2 23 0 30 -3 6 -5 -1 -5 -18z"/>
<path d="M1492 1755 c0 -16 2 -22 5 -12 2 9 2 23 0 30 -3 6 -5 -1 -5 -18z"/>
<path d="M1530 1755 c0 -14 5 -25 10 -25 6 0 10 11 10 25 0 14 -4 25 -10 25
-5 0 -10 -11 -10 -25z"/>
<path d="M1582 1755 c0 -16 2 -22 5 -12 2 9 2 23 0 30 -3 6 -5 -1 -5 -18z"/>
<path d="M1621 1753 c0 -16 3 -22 6 -14 5 11 7 11 14 0 6 -10 9 -6 9 14 0 17
-5 27 -15 27 -10 0 -15 -9 -14 -27z"/>
<path d="M2041 1753 c0 -16 3 -22 6 -14 5 11 7 11 14 0 6 -10 9 -6 9 14 0 17
-5 27 -15 27 -10 0 -15 -9 -14 -27z"/>
<path d="M2522 1755 c0 -16 2 -22 5 -12 2 9 2 23 0 30 -3 6 -5 -1 -5 -18z"/>
<path d="M2554 1765 c-7 -18 3 -35 22 -35 8 0 14 10 14 25 0 27 -27 35 -36 10z"/>
<path d="M2612 1755 c0 -16 2 -22 5 -12 2 9 2 23 0 30 -3 6 -5 -1 -5 -18z"/>
<path d="M2651 1753 c0 -16 3 -22 6 -14 5 11 7 11 14 0 6 -10 9 -6 9 14 0 17
-5 27 -15 27 -10 0 -15 -9 -14 -27z"/>
<path d="M2701 1773 c0 -5 4 -17 9 -28 8 -18 9 -17 9 8 1 15 -3 27 -9 27 -5 0
-10 -3 -9 -7z"/>
<path d="M2747 1774 c-16 -16 -7 -44 14 -44 15 0 20 5 17 22 -3 22 -19 33 -31
22z"/>
<path d="M2791 1753 c0 -16 3 -22 6 -14 5 11 7 11 14 0 6 -10 9 -6 9 14 0 17
-5 27 -15 27 -10 0 -15 -9 -14 -27z"/>
<path d="M2847 1773 c-3 -5 -1 -17 4 -28 7 -17 8 -17 8 8 1 27 -4 34 -12 20z"/>
<path d="M2887 1774 c-4 -4 -7 -17 -7 -28 1 -19 1 -20 11 -3 11 19 8 43 -4 31z"/>
<path d="M892 1722 c-20 -3 -22 -7 -17 -35 10 -43 62 -179 77 -200 12 -16 15
-16 35 -2 l22 15 -23 53 c-13 28 -31 77 -41 107 -21 65 -23 67 -53 62z"/>
<path d="M2885 1684 c-18 -45 -19 -64 -2 -64 7 0 19 17 26 38 8 20 16 43 18
50 3 6 -2 12 -11 12 -9 0 -22 -16 -31 -36z"/>
<path d="M1152 1658 c5 -32 28 -35 28 -4 0 17 -5 26 -16 26 -10 0 -14 -7 -12
-22z"/>
<path d="M1194 1665 c-7 -18 3 -35 22 -35 8 0 14 10 14 25 0 27 -27 35 -36 10z"/>
<path d="M1252 1655 c0 -16 2 -22 5 -12 2 9 2 23 0 30 -3 6 -5 -1 -5 -18z"/>
<path d="M1290 1655 c0 -16 6 -25 15 -25 9 0 15 9 15 25 0 16 -6 25 -15 25 -9
0 -15 -9 -15 -25z"/>
<path d="M1348 1655 c2 -14 6 -25 8 -25 2 0 4 11 4 25 0 14 -4 25 -9 25 -4 0
-6 -11 -3 -25z"/>
<path d="M1380 1656 c0 -20 5 -26 21 -26 15 0 20 5 17 22 -5 34 -38 37 -38 4z"/>
<path d="M1442 1655 c0 -16 2 -22 5 -12 2 9 2 23 0 30 -3 6 -5 -1 -5 -18z"/>
<path d="M1488 1655 c2 -14 6 -25 8 -25 2 0 4 11 4 25 0 14 -4 25 -9 25 -4 0
-6 -11 -3 -25z"/>
<path d="M1530 1655 c0 -14 5 -25 10 -25 6 0 10 11 10 25 0 14 -4 25 -10 25
-5 0 -10 -11 -10 -25z"/>
<path d="M1582 1655 c0 -16 2 -22 5 -12 2 9 2 23 0 30 -3 6 -5 -1 -5 -18z"/>
<path d="M1620 1655 c0 -16 6 -25 15 -25 9 0 15 9 15 25 0 16 -6 25 -15 25 -9
0 -15 -9 -15 -25z"/>
<path d="M1671 1673 c0 -5 4 -17 9 -28 8 -18 9 -17 9 8 1 15 -3 27 -9 27 -5 0
-10 -3 -9 -7z"/>
<path d="M2002 1655 c0 -16 2 -22 5 -12 2 9 2 23 0 30 -3 6 -5 -1 -5 -18z"/>
<path d="M2040 1655 c0 -16 6 -25 15 -25 9 0 15 9 15 25 0 16 -6 25 -15 25 -9
0 -15 -9 -15 -25z"/>
<path d="M2522 1655 c0 -16 2 -22 5 -12 2 9 2 23 0 30 -3 6 -5 -1 -5 -18z"/>
<path d="M2554 1665 c-7 -18 3 -35 22 -35 8 0 14 10 14 25 0 27 -27 35 -36 10z"/>
<path d="M2612 1655 c0 -16 2 -22 5 -12 2 9 2 23 0 30 -3 6 -5 -1 -5 -18z"/>
<path d="M2650 1655 c0 -16 6 -25 15 -25 9 0 15 9 15 25 0 16 -6 25 -15 25 -9
0 -15 -9 -15 -25z"/>
<path d="M2701 1673 c0 -5 4 -17 9 -28 8 -18 9 -17 9 8 1 15 -3 27 -9 27 -5 0
-10 -3 -9 -7z"/>
<path d="M2740 1655 c0 -20 4 -26 18 -23 9 2 17 12 17 23 0 11 -8 21 -17 23
-14 3 -18 -3 -18 -23z"/>
<path d="M2790 1655 c0 -16 6 -25 15 -25 9 0 15 9 15 25 0 16 -6 25 -15 25 -9
0 -15 -9 -15 -25z"/>
<path d="M2847 1660 c3 -11 7 -20 9 -20 2 0 4 9 4 20 0 11 -4 20 -9 20 -5 0
-7 -9 -4 -20z"/>
<path d="M1096 1661 c-3 -4 12 -45 34 -89 30 -63 43 -80 55 -76 9 4 14 9 13
13 -2 3 -21 41 -42 84 -37 74 -48 87 -60 68z"/>
<path d="M2926 1643 c-2 -10 -7 -28 -11 -40 -5 -17 -2 -23 10 -23 9 0 13 5 10
10 -3 6 -2 10 4 10 5 0 8 9 6 20 -2 11 1 20 6 20 6 0 7 5 4 10 -10 15 -23 12
-29 -7z"/>
<path d="M2809 1527 c-30 -52 -43 -86 -37 -92 11 -12 36 18 78 98 28 51 32 78
12 77 -4 -1 -28 -38 -53 -83z"/>
<path d="M1197 1574 c-8 -9 11 -44 23 -44 6 0 10 11 10 25 0 23 -18 34 -33 19z"/>
<path d="M1252 1555 c0 -16 2 -22 5 -12 2 9 2 23 0 30 -3 6 -5 -1 -5 -18z"/>
<path d="M1290 1555 c0 -16 6 -25 15 -25 9 0 15 9 15 25 0 16 -6 25 -15 25 -9
0 -15 -9 -15 -25z"/>
<path d="M1348 1555 c2 -14 6 -25 8 -25 2 0 4 11 4 25 0 14 -4 25 -9 25 -4 0
-6 -11 -3 -25z"/>
<path d="M1382 1558 c2 -13 10 -23 18 -23 8 0 16 10 18 23 3 17 -2 22 -18 22
-16 0 -21 -5 -18 -22z"/>
<path d="M1442 1555 c0 -16 2 -22 5 -12 2 9 2 23 0 30 -3 6 -5 -1 -5 -18z"/>
<path d="M1488 1555 c2 -14 6 -25 8 -25 2 0 4 11 4 25 0 14 -4 25 -9 25 -4 0
-6 -11 -3 -25z"/>
<path d="M1530 1555 c0 -14 5 -25 10 -25 6 0 10 11 10 25 0 14 -4 25 -10 25
-5 0 -10 -11 -10 -25z"/>
<path d="M1582 1555 c0 -16 2 -22 5 -12 2 9 2 23 0 30 -3 6 -5 -1 -5 -18z"/>
<path d="M1620 1555 c0 -16 6 -25 15 -25 9 0 15 9 15 25 0 16 -6 25 -15 25 -9
0 -15 -9 -15 -25z"/>
<path d="M1678 1555 c2 -14 6 -25 8 -25 2 0 4 11 4 25 0 14 -4 25 -9 25 -4 0
-6 -11 -3 -25z"/>
<path d="M2002 1555 c0 -16 2 -22 5 -12 2 9 2 23 0 30 -3 6 -5 -1 -5 -18z"/>
<path d="M2040 1551 c0 -43 -21 -96 -31 -79 -6 8 -9 0 -7 -24 l2 -38 188 0
c103 0 189 3 189 8 1 4 3 42 4 85 l2 77 -173 0 -174 0 0 -29z"/>
<path d="M2400 1495 l0 -85 38 0 c31 0 41 5 52 25 10 20 11 28 2 37 -15 15
-15 51 -1 65 23 23 2 43 -46 43 l-45 0 0 -85z"/>
<path d="M2518 1555 c2 -14 6 -25 8 -25 2 0 4 11 4 25 0 14 -4 25 -9 25 -4 0
-6 -11 -3 -25z"/>
<path d="M2554 1565 c-7 -18 3 -35 22 -35 8 0 14 10 14 25 0 27 -27 35 -36 10z"/>
<path d="M2612 1555 c0 -16 2 -22 5 -12 2 9 2 23 0 30 -3 6 -5 -1 -5 -18z"/>
<path d="M2650 1555 c0 -16 6 -25 15 -25 9 0 15 9 15 25 0 16 -6 25 -15 25 -9
0 -15 -9 -15 -25z"/>
<path d="M2708 1555 c2 -14 6 -25 8 -25 2 0 4 11 4 25 0 14 -4 25 -9 25 -4 0
-6 -11 -3 -25z"/>
<path d="M2740 1555 c0 -20 4 -26 18 -23 9 2 17 12 17 23 0 11 -8 21 -17 23
-14 3 -18 -3 -18 -23z"/>
<path d="M2790 1553 c0 -26 1 -26 15 -7 19 25 19 34 0 34 -10 0 -15 -10 -15
-27z"/>
<path d="M2980 1482 c-44 -81 -103 -166 -154 -220 l-30 -32 21 -21 21 -21 38
42 c22 23 58 69 80 101 43 61 119 198 112 203 -1 2 -13 8 -25 15 -20 10 -24 6
-63 -67z"/>
<path d="M1101 1541 c-10 -7 -10 -13 -2 -30 7 -11 16 -21 22 -21 6 0 8 -4 5
-8 -9 -15 12 -38 24 -26 15 15 -31 96 -49 85z"/>
<path d="M878 1459 c-42 -22 -44 -27 -24 -54 13 -19 15 -18 59 5 41 22 44 26
34 47 -12 28 -21 28 -69 2z"/>
<path d="M985 1466 c-18 -13 -17 -17 27 -87 65 -105 193 -249 220 -249 4 0 12
9 18 21 10 18 3 29 -58 93 -38 40 -93 110 -122 155 -29 44 -56 81 -60 81 -3 0
-15 -6 -25 -14z"/>
<path d="M1291 1458 c-1 -19 4 -28 14 -28 10 0 15 10 15 28 0 19 -3 23 -9 13
-7 -11 -9 -11 -14 0 -3 8 -6 2 -6 -13z"/>
<path d="M1348 1455 c2 -14 6 -25 8 -25 2 0 4 11 4 25 0 14 -4 25 -9 25 -4 0
-6 -11 -3 -25z"/>
<path d="M1382 1458 c2 -13 10 -23 18 -23 8 0 16 10 18 23 3 17 -2 22 -18 22
-16 0 -21 -5 -18 -22z"/>
<path d="M1442 1455 c0 -16 2 -22 5 -12 2 9 2 23 0 30 -3 6 -5 -1 -5 -18z"/>
<path d="M1488 1455 c2 -14 6 -25 8 -25 2 0 4 11 4 25 0 14 -4 25 -9 25 -4 0
-6 -11 -3 -25z"/>
<path d="M1530 1461 c0 -11 5 -23 10 -26 6 -4 10 5 10 19 0 14 -4 26 -10 26
-5 0 -10 -9 -10 -19z"/>
<path d="M1582 1455 c0 -16 2 -22 5 -12 2 9 2 23 0 30 -3 6 -5 -1 -5 -18z"/>
<path d="M1621 1458 c-1 -19 4 -28 14 -28 10 0 15 10 15 28 0 19 -3 23 -9 13
-7 -11 -9 -11 -14 0 -3 8 -6 2 -6 -13z"/>
<path d="M1678 1455 c2 -14 6 -25 8 -25 2 0 4 11 4 25 0 14 -4 25 -9 25 -4 0
-6 -11 -3 -25z"/>
<path d="M1710 1455 c0 -20 4 -26 18 -23 9 2 17 12 17 23 0 11 -8 21 -17 23
-14 3 -18 -3 -18 -23z"/>
<path d="M1944 1465 c-7 -18 3 -35 22 -35 8 0 14 10 14 25 0 27 -27 35 -36 10z"/>
<path d="M2518 1455 c2 -14 6 -25 8 -25 2 0 4 11 4 25 0 14 -4 25 -9 25 -4 0
-6 -11 -3 -25z"/>
<path d="M2553 1464 c-7 -18 11 -39 26 -30 17 11 13 46 -4 46 -9 0 -18 -7 -22
-16z"/>
<path d="M2612 1455 c0 -16 2 -22 5 -12 2 9 2 23 0 30 -3 6 -5 -1 -5 -18z"/>
<path d="M2651 1458 c-1 -19 4 -28 14 -28 10 0 15 10 15 28 0 19 -3 23 -9 13
-7 -11 -9 -11 -14 0 -3 8 -6 2 -6 -13z"/>
<path d="M2708 1455 c2 -14 6 -25 8 -25 2 0 4 11 4 25 0 14 -4 25 -9 25 -4 0
-6 -11 -3 -25z"/>
<path d="M2740 1465 c0 -8 2 -15 4 -15 2 0 6 7 10 15 3 8 1 15 -4 15 -6 0 -10
-7 -10 -15z"/>
<path d="M1224 1436 c-7 -19 101 -149 120 -143 20 7 11 23 -51 91 -49 54 -64
65 -69 52z"/>
<path d="M2650 1325 c-46 -46 -61 -68 -53 -76 13 -13 149 113 139 130 -12 18
-19 14 -86 -54z"/>
<path d="M1346 1365 c4 -8 8 -15 10 -15 2 0 4 7 4 15 0 8 -4 15 -10 15 -5 0
-7 -7 -4 -15z"/>
<path d="M1382 1358 c2 -13 10 -23 18 -23 8 0 16 10 18 23 3 17 -2 22 -18 22
-16 0 -21 -5 -18 -22z"/>
<path d="M1442 1355 c0 -16 2 -22 5 -12 2 9 2 23 0 30 -3 6 -5 -1 -5 -18z"/>
<path d="M1488 1355 c2 -14 6 -25 8 -25 2 0 4 11 4 25 0 14 -4 25 -9 25 -4 0
-6 -11 -3 -25z"/>
<path d="M1530 1360 c0 -11 5 -20 10 -20 6 0 10 9 10 20 0 11 -4 20 -10 20 -5
0 -10 -9 -10 -20z"/>
<path d="M1582 1355 c0 -16 2 -22 5 -12 2 9 2 23 0 30 -3 6 -5 -1 -5 -18z"/>
<path d="M1620 1353 c0 -14 6 -23 15 -23 9 0 15 9 15 23 0 14 -6 24 -15 24 -9
0 -15 -10 -15 -24z"/>
<path d="M1677 1360 c3 -11 7 -20 9 -20 2 0 4 9 4 20 0 11 -4 20 -9 20 -5 0
-7 -9 -4 -20z"/>
<path d="M1711 1363 c-1 -12 4 -25 10 -29 16 -10 33 12 25 33 -6 14 -9 15 -15
4 -7 -11 -9 -11 -14 0 -3 8 -6 5 -6 -8z"/>
<path d="M1768 1355 c2 -14 6 -25 8 -25 2 0 4 11 4 25 0 14 -4 25 -9 25 -4 0
-6 -11 -3 -25z"/>
<path d="M1802 1358 c2 -13 10 -23 18 -23 8 0 16 10 18 23 3 17 -2 22 -18 22
-16 0 -21 -5 -18 -22z"/>
<path d="M1852 1360 c4 -31 32 -33 36 -2 2 12 -1 22 -7 22 -6 0 -11 -6 -11
-12 0 -9 -4 -8 -11 2 -8 12 -9 10 -7 -10z"/>
<path d="M1912 1355 c0 -16 2 -22 5 -12 2 9 2 23 0 30 -3 6 -5 -1 -5 -18z"/>
<path d="M1943 1363 c-7 -18 12 -38 26 -29 6 4 11 15 11 25 0 21 -30 24 -37 4z"/>
<path d="M2002 1360 c0 -14 2 -19 5 -12 2 6 2 18 0 25 -3 6 -5 1 -5 -13z"/>
<path d="M2041 1358 c-1 -19 4 -28 14 -28 10 0 15 10 15 28 0 19 -3 23 -9 13
-7 -11 -9 -11 -14 0 -3 8 -6 2 -6 -13z"/>
<path d="M2098 1355 c2 -14 6 -25 8 -25 2 0 4 11 4 25 0 14 -4 25 -9 25 -4 0
-6 -11 -3 -25z"/>
<path d="M2132 1358 c2 -13 10 -23 18 -23 8 0 16 10 18 23 3 17 -2 22 -18 22
-16 0 -21 -5 -18 -22z"/>
<path d="M2183 1361 c3 -36 27 -39 27 -4 0 19 -3 24 -9 14 -7 -11 -10 -11 -15
0 -3 8 -4 3 -3 -10z"/>
<path d="M2230 1353 c0 -30 24 -26 28 4 2 12 -3 20 -13 20 -9 0 -15 -9 -15
-24z"/>
<path d="M2280 1360 c0 -11 5 -20 10 -20 6 0 10 9 10 20 0 11 -4 20 -10 20 -5
0 -10 -9 -10 -20z"/>
<path d="M2323 1361 c3 -36 27 -39 27 -4 0 19 -3 24 -9 14 -7 -11 -10 -11 -15
0 -3 8 -4 3 -3 -10z"/>
<path d="M2378 1355 c2 -14 6 -25 8 -25 2 0 4 11 4 25 0 14 -4 25 -9 25 -4 0
-6 -11 -3 -25z"/>
<path d="M2412 1358 c2 -13 10 -23 18 -23 8 0 16 10 18 23 3 17 -2 22 -18 22
-16 0 -21 -5 -18 -22z"/>
<path d="M2461 1363 c-1 -12 4 -25 10 -29 16 -10 33 12 25 33 -6 14 -9 15 -15
4 -7 -11 -9 -11 -14 0 -3 8 -6 5 -6 -8z"/>
<path d="M2518 1355 c2 -14 6 -25 8 -25 2 0 4 11 4 25 0 14 -4 25 -9 25 -4 0
-6 -11 -3 -25z"/>
<path d="M2552 1358 c2 -13 10 -23 18 -23 8 0 16 10 18 23 3 17 -2 22 -18 22
-16 0 -21 -5 -18 -22z"/>
<path d="M2612 1355 c0 -16 2 -22 5 -12 2 9 2 23 0 30 -3 6 -5 -1 -5 -18z"/>
<path d="M2650 1361 c0 -20 2 -21 15 -11 8 7 15 18 14 24 0 6 -3 5 -6 -3 -5
-11 -7 -11 -14 0 -6 10 -9 7 -9 -10z"/>
<path d="M2820 1371 c0 -22 -171 -182 -246 -230 -77 -50 -81 -54 -70 -77 6
-13 14 -24 17 -24 3 0 42 23 85 52 81 54 264 227 264 251 0 7 -5 18 -12 25
-14 14 -38 16 -38 3z"/>
<path d="M2737 1335 c-39 -48 -24 -63 20 -21 20 19 33 38 29 45 -11 17 -18 13
-49 -24z"/>
<path d="M1366 1281 c-6 -9 58 -71 74 -71 24 0 16 21 -19 49 -42 34 -47 36
-55 22z"/>
<path d="M1624 1276 c-8 -21 3 -49 16 -41 5 3 10 15 10 25 0 25 -18 36 -26 16z"/>
<path d="M1714 1277 c-8 -21 1 -47 16 -47 19 0 23 31 7 48 -15 14 -17 14 -23
-1z"/>
<path d="M1811 1281 c-17 -11 -10 -46 9 -46 17 0 26 33 13 46 -4 4 -14 4 -22
0z"/>
<path d="M1854 1275 c-8 -21 3 -47 19 -43 6 3 13 14 15 25 4 24 -26 40 -34 18z"/>
<path d="M1950 1276 c-14 -18 -6 -50 13 -44 15 6 22 37 10 49 -6 6 -15 4 -23
-5z"/>
<path d="M2044 1276 c-8 -21 3 -49 16 -41 5 3 10 15 10 25 0 25 -18 36 -26 16z"/>
<path d="M2134 1276 c-8 -22 3 -49 19 -43 6 2 12 14 12 27 0 27 -22 39 -31 16z"/>
<path d="M2184 1276 c-8 -21 3 -49 16 -41 5 3 10 15 10 25 0 25 -18 36 -26 16z"/>
<path d="M2234 1276 c-8 -21 3 -49 16 -41 5 3 10 15 10 25 0 25 -18 36 -26 16z"/>
<path d="M2324 1276 c-8 -21 3 -49 16 -41 5 3 10 15 10 25 0 25 -18 36 -26 16z"/>
<path d="M2421 1281 c-17 -11 -10 -46 9 -46 17 0 26 33 13 46 -4 4 -14 4 -22
0z"/>
<path d="M2464 1277 c-7 -20 1 -47 15 -47 17 0 22 33 7 49 -14 13 -16 13 -22
-2z"/>
<path d="M2560 1280 c-8 -5 -12 -12 -9 -15 4 -3 12 1 19 10 14 17 11 19 -10 5z"/>
<path d="M1487 1260 c3 -11 7 -20 9 -20 2 0 4 9 4 20 0 11 -4 20 -9 20 -5 0
-7 -9 -4 -20z"/>
<path d="M1530 1260 c0 -11 5 -20 10 -20 6 0 10 9 10 20 0 11 -4 20 -10 20 -5
0 -10 -9 -10 -20z"/>
<path d="M1582 1260 c0 -14 2 -19 5 -12 2 6 2 18 0 25 -3 6 -5 1 -5 -13z"/>
<path d="M1677 1260 c3 -11 7 -20 9 -20 2 0 4 9 4 20 0 11 -4 20 -9 20 -5 0
-7 -9 -4 -20z"/>
<path d="M1772 1255 c0 -16 2 -22 5 -12 2 9 2 23 0 30 -3 6 -5 -1 -5 -18z"/>
<path d="M1912 1255 c0 -16 2 -22 5 -12 2 9 2 23 0 30 -3 6 -5 -1 -5 -18z"/>
<path d="M2002 1260 c0 -14 2 -19 5 -12 2 6 2 18 0 25 -3 6 -5 1 -5 -13z"/>
<path d="M2097 1260 c3 -11 7 -20 9 -20 2 0 4 9 4 20 0 11 -4 20 -9 20 -5 0
-7 -9 -4 -20z"/>
<path d="M2280 1260 c0 -11 5 -20 10 -20 6 0 10 9 10 20 0 11 -4 20 -10 20 -5
0 -10 -9 -10 -20z"/>
<path d="M2378 1255 c2 -14 6 -25 8 -25 2 0 4 11 4 25 0 14 -4 25 -9 25 -4 0
-6 -11 -3 -25z"/>
<path d="M2517 1260 c3 -11 7 -20 9 -20 2 0 4 9 4 20 0 11 -4 20 -9 20 -5 0
-7 -9 -4 -20z"/>
<path d="M1317 1253 c-3 -5 1 -14 9 -20 14 -14 30 0 19 17 -7 12 -22 13 -28 3z"/>
<path d="M1258 1229 c-17 -18 -15 -21 65 -84 90 -71 288 -178 321 -173 32 5
29 49 -4 58 -55 15 -194 93 -275 155 -46 36 -86 65 -87 64 -2 0 -11 -9 -20
-20z"/>
<path d="M2522 1218 c-31 -21 -41 -33 -33 -41 11 -11 91 35 91 53 0 20 -17 17
-58 -12z"/>
<path d="M1351 1226 c-9 -10 -7 -15 5 -20 23 -9 36 6 19 21 -10 10 -16 9 -24
-1z"/>
<path d="M1470 1196 c0 -15 154 -99 164 -89 13 14 3 23 -70 62 -82 45 -94 48
-94 27z"/>
<path d="M2749 1184 c-13 -14 -54 -48 -91 -76 -67 -49 -67 -50 -52 -74 l16
-24 57 40 c31 23 76 58 101 80 43 38 44 39 25 59 -23 27 -27 26 -56 -5z"/>
<path d="M1620 1177 c0 -8 7 -18 16 -21 11 -4 14 -1 12 11 -4 21 -28 30 -28
10z"/>
<path d="M1717 1184 c-14 -15 -7 -42 11 -40 9 2 17 11 17 21 0 19 -17 30 -28
19z"/>
<path d="M1772 1165 c0 -16 2 -22 5 -12 2 9 2 23 0 30 -3 6 -5 -1 -5 -18z"/>
<path d="M1807 1184 c-11 -11 -8 -44 3 -44 6 0 10 6 10 13 0 8 4 7 11 -3 8
-12 9 -10 7 9 -3 25 -19 37 -31 25z"/>
<path d="M1857 1184 c-16 -16 -7 -44 14 -44 15 0 20 5 17 22 -3 22 -19 33 -31
22z"/>
<path d="M1912 1165 c0 -16 2 -22 5 -12 2 9 2 23 0 30 -3 6 -5 -1 -5 -18z"/>
<path d="M1944 1175 c-4 -9 -2 -21 5 -28 8 -8 11 -7 11 4 0 12 2 12 11 -1 8
-12 9 -10 7 9 -4 29 -25 39 -34 16z"/>
<path d="M2047 1183 c-13 -12 -7 -40 8 -40 9 0 15 10 15 24 0 22 -10 30 -23
16z"/>
<path d="M2097 1183 c-3 -5 -1 -17 4 -28 7 -17 8 -17 8 8 1 27 -4 34 -12 20z"/>
<path d="M2137 1184 c-16 -16 -7 -44 14 -44 15 0 20 5 17 22 -3 22 -19 33 -31
22z"/>
<path d="M2187 1183 c-13 -12 -7 -40 8 -40 9 0 15 10 15 24 0 22 -10 30 -23
16z"/>
<path d="M2231 1163 c0 -15 3 -22 6 -14 5 11 7 11 15 0 6 -10 8 -7 6 10 -4 36
-28 39 -27 4z"/>
<path d="M2327 1183 c-13 -12 -7 -40 8 -40 9 0 15 10 15 24 0 22 -10 30 -23
16z"/>
<path d="M2381 1174 c0 -11 3 -14 6 -6 3 7 2 16 -1 19 -3 4 -6 -2 -5 -13z"/>
<path d="M1677 1160 c3 -11 7 -20 9 -20 2 0 4 9 4 20 0 11 -4 20 -9 20 -5 0
-7 -9 -4 -20z"/>
<path d="M2002 1160 c0 -14 2 -19 5 -12 2 6 2 18 0 25 -3 6 -5 1 -5 -13z"/>
<path d="M2280 1160 c0 -11 5 -20 10 -20 6 0 10 9 10 20 0 11 -4 20 -10 20 -5
0 -10 -9 -10 -20z"/>
<path d="M2385 1145 c-38 -19 -76 -34 -82 -35 -18 0 -16 -19 1 -26 21 -8 166
62 166 80 0 21 -3 20 -85 -19z"/>
<path d="M2837 1162 c-16 -17 -14 -21 21 -55 l38 -38 19 21 c18 20 18 21 -15
55 -39 40 -41 41 -63 17z"/>
<path d="M2518 1151 c-20 -13 -24 -21 -17 -31 8 -13 11 -13 23 2 7 10 16 15
19 11 4 -3 7 -1 7 6 0 7 5 9 11 5 7 -4 10 -1 7 6 -6 20 -20 20 -50 1z"/>
<path d="M1266 1121 c-17 -18 -15 -21 46 -64 35 -24 84 -56 110 -71 46 -27 47
-27 57 -7 16 30 14 35 -26 56 -20 11 -63 39 -95 63 -32 23 -62 42 -66 42 -5 0
-17 -9 -26 -19z"/>
<path d="M1540 1095 c0 -9 5 -13 10 -10 6 3 10 1 10 -6 0 -7 3 -10 6 -6 4 3
13 -1 21 -9 17 -16 44 -15 50 2 2 6 -13 16 -34 23 -21 7 -44 15 -50 17 -8 3
-13 -2 -13 -11z"/>
<path d="M1700 1087 c0 -9 26 -20 69 -30 83 -20 121 -22 121 -4 0 8 -32 19
-84 30 -101 20 -106 21 -106 4z"/>
<path d="M2048 1083 c7 -3 16 -2 19 1 4 3 -2 6 -13 5 -11 0 -14 -3 -6 -6z"/>
<path d="M2128 1072 c-61 -10 -88 -19 -88 -28 0 -8 10 -14 23 -14 41 0 152 21
162 31 20 20 -14 24 -97 11z"/>
<path d="M1910 1045 c0 -12 13 -15 55 -15 42 0 55 3 55 15 0 12 -13 15 -55 15
-42 0 -55 -3 -55 -15z"/>
<path d="M2238 1034 c-6 -5 -45 -15 -65 -16 -7 -1 -13 -7 -13 -15 0 -7 6 -13
13 -13 25 0 87 21 87 30 0 11 -15 21 -22 14z"/>
<path d="M2505 1013 c-65 -34 -185 -77 -258 -94 -54 -11 -58 -14 -55 -38 3
-23 7 -26 38 -23 56 4 188 48 278 91 45 22 82 43 82 46 0 12 -21 45 -28 45 -4
-1 -29 -13 -57 -27z"/>
<path d="M1891 994 c0 -11 3 -14 6 -6 3 7 2 16 -1 19 -3 4 -6 -2 -5 -13z"/>
<path d="M1911 994 c0 -11 3 -14 6 -6 3 7 2 16 -1 19 -3 4 -6 -2 -5 -13z"/>
<path d="M1931 994 c0 -11 3 -14 6 -6 3 7 2 16 -1 19 -3 4 -6 -2 -5 -13z"/>
<path d="M1950 994 c0 -8 5 -12 10 -9 6 4 8 11 5 16 -9 14 -15 11 -15 -7z"/>
<path d="M2210 989 c-81 -18 -317 -28 -339 -15 -9 6 -23 -45 -14 -54 2 -3 73
-5 156 -5 163 0 303 23 314 51 5 14 -14 45 -26 43 -3 -1 -44 -10 -91 -20z"/>
<path d="M1496 985 c-3 -9 -6 -21 -6 -26 0 -25 225 -99 345 -114 l55 -7 0 29
c0 29 -1 30 -77 41 -43 7 -123 28 -178 48 -55 19 -107 38 -116 40 -10 3 -19
-1 -23 -11z"/>
<path d="M1412 905 c-21 -44 -21 -45 -2 -55 30 -16 35 -13 58 35 21 44 21 45
2 55 -30 16 -35 13 -58 -35z"/>
<path d="M2007 893 l-88 -4 3 -27 c3 -25 6 -27 58 -30 30 -1 87 1 125 5 66 8
70 9 70 33 0 28 -7 29 -168 23z"/>
<path d="M2164 799 c3 -17 6 -42 6 -55 0 -16 6 -24 18 -24 36 0 45 15 38 64
-7 43 -9 46 -38 46 -29 0 -30 -2 -24 -31z"/>
<path d="M2532 3378 c-19 -19 -14 -56 8 -68 17 -9 20 -8 20 13 0 14 7 30 15
37 8 7 12 16 9 21 -8 13 -38 11 -52 -3z"/>
<path d="M1372 3358 c-27 -27 -6 -68 35 -68 26 0 30 12 8 30 -8 7 -15 21 -15
31 0 22 -11 24 -28 7z"/>
<path d="M2596 3351 c-20 -22 -21 -57 0 -65 23 -9 24 -8 24 15 0 12 8 27 17
34 15 11 15 13 -4 23 -16 9 -24 8 -37 -7z"/>
<path d="M1317 3333 c-12 -12 -7 -50 8 -63 8 -7 23 -9 36 -5 21 7 21 9 6 20
-9 7 -17 22 -17 34 0 20 -19 28 -33 14z"/>
<path d="M2657 3325 c-21 -15 -22 -61 -1 -69 23 -9 24 -8 24 15 0 12 8 27 17
34 15 11 15 13 -3 23 -14 7 -24 7 -37 -3z"/>
<path d="M1254 3296 c-14 -37 17 -75 51 -62 16 6 17 8 1 24 -9 10 -16 26 -16
35 0 21 -28 23 -36 3z"/>
<path d="M2712 3294 c-24 -17 -28 -44 -10 -62 17 -17 28 -15 28 7 0 10 10 25
22 33 l22 15 -20 11 c-16 9 -26 8 -42 -4z"/>
<path d="M1200 3265 c-26 -32 22 -85 56 -61 17 13 16 14 -4 25 -12 6 -22 21
-22 31 0 24 -13 26 -30 5z"/>
<path d="M2762 3258 c-7 -7 -12 -22 -12 -34 0 -26 22 -44 28 -25 3 8 13 22 24
33 17 17 18 22 7 29 -19 12 -33 11 -47 -3z"/>
<path d="M1152 3238 c-31 -31 3 -87 42 -72 20 8 21 23 1 30 -8 4 -15 14 -15
24 0 24 -14 32 -28 18z"/>
<path d="M2821 3224 c-24 -18 -27 -46 -6 -64 12 -10 16 -9 21 6 4 11 15 26 25
34 19 15 19 15 0 27 -15 9 -23 8 -40 -3z"/>
<path d="M1099 3200 c-21 -12 -13 -57 13 -71 14 -8 23 -7 35 2 13 12 13 14 -1
24 -8 7 -19 21 -23 33 -6 15 -12 18 -24 12z"/>
<path d="M2872 3184 c-25 -17 -29 -46 -7 -64 12 -10 16 -8 24 13 5 13 17 27
26 31 14 5 15 9 5 21 -16 19 -20 19 -48 -1z"/>
<path d="M1047 3158 c-15 -11 -16 -19 -8 -39 11 -30 45 -43 61 -24 9 10 7 16
-9 24 -11 6 -21 20 -23 32 -3 17 -5 18 -21 7z"/>
<path d="M2920 3140 c-24 -24 -25 -43 -5 -60 12 -10 16 -8 24 13 5 13 17 27
26 31 14 5 15 9 5 21 -17 20 -26 19 -50 -5z"/>
<path d="M998 3113 c-20 -22 -9 -58 21 -66 26 -6 49 18 27 30 -8 4 -19 19 -23
31 -8 22 -10 22 -25 5z"/>
<path d="M2962 3098 c-16 -16 -15 -43 1 -57 11 -8 16 -5 25 14 6 14 19 25 28
25 13 0 14 3 4 15 -15 18 -42 19 -58 3z"/>
<path d="M951 3067 c-29 -36 24 -86 56 -54 14 13 13 16 -4 21 -11 4 -24 16
-29 27 -9 19 -11 19 -23 6z"/>
<path d="M3018 3058 c-21 -18 -28 -44 -15 -57 16 -16 24 -14 30 9 3 11 12 20
21 20 19 0 21 11 4 28 -15 15 -20 15 -40 0z"/>
<path d="M901 3016 c-25 -30 31 -80 58 -53 16 16 14 27 -5 27 -9 0 -18 9 -21
20 -6 24 -16 25 -32 6z"/>
<path d="M3058 3009 c-22 -12 -23 -42 -4 -58 11 -10 16 -8 21 8 3 11 15 23 26
26 16 5 18 10 8 21 -13 16 -27 17 -51 3z"/>
<path d="M861 2976 c-22 -27 1 -68 36 -64 32 4 41 24 15 32 -11 4 -23 16 -28
27 -9 19 -11 20 -23 5z"/>
<path d="M3088 2945 c-9 -21 -9 -29 4 -41 15 -15 17 -14 22 4 4 12 16 24 27
27 27 9 19 29 -14 33 -21 3 -30 -3 -39 -23z"/>
<path d="M814 2916 c-9 -24 15 -56 41 -56 26 0 46 21 26 28 -8 3 -22 13 -32
23 -23 23 -28 23 -35 5z"/>
<path d="M3128 2895 c-9 -20 -9 -28 1 -38 10 -9 15 -9 24 4 7 8 20 18 30 22
26 10 16 31 -16 35 -21 3 -30 -3 -39 -23z"/>
<path d="M771 2856 c-17 -21 -8 -43 24 -58 22 -10 28 -9 36 3 13 21 11 29 -9
29 -11 0 -23 9 -28 21 -9 19 -11 20 -23 5z"/>
<path d="M3203 2852 c-24 -4 -41 -42 -28 -62 5 -8 13 -5 26 9 11 12 26 21 34
21 8 0 15 4 15 9 0 15 -24 27 -47 23z"/>
<path d="M733 2801 c-23 -37 34 -80 65 -49 17 17 15 28 -7 28 -11 0 -26 9 -33
19 -13 19 -14 19 -25 2z"/>
<path d="M3211 2781 c-11 -20 -5 -51 9 -51 4 0 10 7 14 15 3 8 15 15 26 15 32
0 21 34 -12 38 -18 2 -30 -3 -37 -17z"/>
<path d="M696 2744 c-3 -8 -1 -24 4 -35 13 -23 65 -26 74 -4 4 10 -1 15 -14
15 -11 0 -25 9 -32 20 -15 24 -24 25 -32 4z"/>
<path d="M3239 2719 c-9 -17 -8 -25 5 -37 11 -11 16 -12 16 -4 0 7 13 18 29
23 37 13 31 39 -10 39 -19 0 -32 -7 -40 -21z"/>
<path d="M666 2684 c-17 -44 52 -76 74 -34 9 18 8 20 -15 20 -14 0 -28 7 -31
15 -8 19 -20 19 -28 -1z"/>
<path d="M3276 2671 c-9 -10 -14 -25 -10 -35 8 -20 23 -21 30 -1 4 8 17 15 30
15 22 0 23 3 14 20 -13 25 -42 26 -64 1z"/>
<path d="M636 2624 c-8 -21 20 -54 45 -54 10 0 23 9 29 20 9 17 8 20 -14 20
-13 0 -26 7 -30 15 -7 20 -22 19 -30 -1z"/>
<path d="M3300 2609 c-7 -11 -9 -28 -6 -36 6 -14 8 -14 24 1 10 9 29 16 41 16
19 0 20 3 11 20 -14 27 -56 26 -70 -1z"/>
<path d="M612 2554 c4 -34 31 -53 55 -38 25 15 28 34 5 34 -11 0 -25 7 -32 15
-19 23 -32 18 -28 -11z"/>
<path d="M3328 2553 c-9 -11 -13 -25 -9 -36 6 -17 8 -17 20 -3 7 9 25 16 38
16 19 0 24 4 19 16 -3 9 -6 18 -6 20 0 12 -49 1 -62 -13z"/>
<path d="M586 2503 c-4 -10 1 -24 13 -37 17 -17 24 -18 46 -8 29 14 36 47 6
37 -10 -3 -24 1 -31 10 -16 20 -26 19 -34 -2z"/>
<path d="M3352 2498 c-13 -13 -16 -41 -5 -51 3 -4 14 0 24 9 10 9 25 14 34 10
13 -4 16 -1 13 17 -3 25 -45 36 -66 15z"/>
<path d="M567 2441 c-9 -36 44 -66 71 -39 20 20 15 40 -9 33 -13 -4 -27 -1
-38 9 -17 16 -19 15 -24 -3z"/>
<path d="M3368 2433 c-8 -10 -13 -26 -11 -35 4 -16 7 -16 27 -3 13 9 31 13 40
9 11 -4 16 -1 16 14 0 34 -47 43 -72 15z"/>
<path d="M550 2371 c0 -27 26 -44 55 -37 34 9 35 45 1 39 -13 -3 -27 0 -30 6
-11 17 -26 13 -26 -8z"/>
<path d="M3386 2371 c-13 -14 -15 -24 -8 -37 6 -11 11 -13 16 -5 4 6 20 11 37
11 29 0 35 6 21 26 -14 23 -48 25 -66 5z"/>
<path d="M534 2317 c-9 -24 14 -47 46 -47 19 0 29 6 33 20 4 16 0 20 -22 20
-15 0 -32 5 -39 12 -9 9 -13 7 -18 -5z"/>
<path d="M3406 2311 c-17 -19 -22 -51 -7 -51 6 0 13 5 17 11 3 6 17 9 31 6 20
-4 24 -1 21 16 -4 29 -42 40 -62 18z"/>
<path d="M520 2242 c0 -9 8 -22 19 -29 26 -16 61 -5 61 19 0 15 -5 19 -20 15
-11 -3 -23 -1 -26 4 -9 16 -34 10 -34 -9z"/>
<path d="M3412 2248 c-14 -14 -16 -48 -3 -48 6 0 13 5 17 11 3 6 17 8 30 5 19
-5 24 -2 24 13 0 29 -45 42 -68 19z"/>
<path d="M510 2181 c0 -42 72 -52 83 -11 4 15 0 19 -22 18 -14 -1 -34 2 -43 6
-14 6 -18 3 -18 -13z"/>
<path d="M3428 2189 c-10 -5 -18 -18 -18 -27 0 -14 8 -18 40 -17 31 0 40 4 40
17 0 10 -9 22 -19 28 -23 12 -22 12 -43 -1z"/>
<path d="M510 2117 c0 -14 8 -30 17 -35 23 -13 63 6 63 30 0 15 -5 17 -25 12
-15 -4 -32 -1 -40 6 -13 10 -15 8 -15 -13z"/>
<path d="M3422 2118 c-23 -23 -12 -35 33 -35 50 0 49 0 35 28 -12 21 -50 25
-68 7z"/>
<path d="M500 2050 c0 -24 34 -43 60 -35 13 4 20 15 20 31 0 21 -3 23 -18 15
-11 -6 -24 -6 -33 0 -22 13 -29 11 -29 -11z"/>
<path d="M3432 2058 c-7 -7 -12 -20 -12 -30 0 -15 4 -17 18 -9 11 6 24 6 33 0
22 -13 29 -11 29 11 0 10 -9 24 -19 30 -25 13 -34 13 -49 -2z"/>
<path d="M500 1970 c0 -28 44 -48 65 -30 8 7 15 21 15 32 0 15 -4 17 -18 9
-11 -6 -24 -6 -33 0 -22 14 -29 11 -29 -11z"/>
<path d="M3433 1983 c-7 -2 -13 -16 -13 -29 0 -21 3 -23 18 -15 11 6 24 6 33
0 22 -13 29 -11 29 11 0 28 -36 46 -67 33z"/>
<path d="M3433 1917 c-13 -5 -23 -18 -23 -29 0 -15 5 -17 25 -12 15 4 32 1 40
-6 13 -10 15 -8 15 13 0 33 -27 48 -57 34z"/>
<path d="M500 1913 c0 -3 5 -13 10 -24 12 -21 50 -25 68 -7 23 23 12 35 -33
35 -25 0 -45 -2 -45 -4z"/>
<path d="M510 1838 c0 -10 9 -22 20 -28 25 -13 60 3 60 28 0 14 -8 18 -40 17
-31 0 -40 -4 -40 -17z"/>
<path d="M3424 1852 c-6 -4 -13 -15 -17 -24 -5 -14 -1 -17 21 -16 15 1 35 -2
45 -6 25 -12 23 30 -2 44 -23 12 -32 12 -47 2z"/>
<path d="M574 1789 c-3 -6 -17 -8 -30 -5 -19 5 -24 2 -24 -14 0 -13 9 -22 25
-26 29 -7 55 10 55 37 0 21 -15 25 -26 8z"/>
<path d="M3418 1793 c-10 -2 -18 -14 -18 -25 0 -15 5 -19 20 -15 11 3 23 1 26
-4 9 -15 34 -10 34 7 0 15 -28 45 -40 43 -3 -1 -13 -3 -22 -6z"/>
<path d="M584 1729 c-3 -6 -17 -9 -30 -6 -32 6 -33 -30 -1 -42 26 -10 57 12
57 41 0 20 -15 24 -26 7z"/>
<path d="M3387 1710 c-4 -16 0 -20 22 -20 15 0 32 -5 39 -12 17 -17 28 18 12
37 -19 23 -67 19 -73 -5z"/>
<path d="M606 1671 c-4 -6 -20 -11 -37 -11 -16 0 -29 -3 -29 -7 0 -15 15 -30
36 -37 28 -9 60 25 46 50 -6 11 -11 13 -16 5z"/>
<path d="M3383 1663 c-7 -2 -13 -13 -13 -22 0 -14 6 -17 24 -14 13 3 27 0 30
-6 11 -17 26 -13 26 7 0 33 -31 50 -67 35z"/>
<path d="M616 1604 c-11 -8 -28 -12 -38 -8 -13 4 -18 0 -18 -15 0 -30 46 -40
70 -15 11 11 15 26 11 36 -5 15 -8 15 -25 2z"/>
<path d="M3362 1598 c-20 -20 -15 -40 9 -33 13 4 27 1 38 -9 17 -16 19 -15 24
3 9 36 -44 66 -71 39z"/>
<path d="M629 1544 c-7 -8 -21 -13 -31 -10 -15 3 -19 0 -16 -17 6 -42 78 -30
78 14 0 25 -15 32 -31 13z"/>
<path d="M3348 1539 c-25 -14 -24 -42 1 -34 10 3 24 -1 31 -10 16 -19 26 -19
34 1 7 18 -19 54 -38 54 -6 0 -19 -5 -28 -11z"/>
<path d="M661 1486 c-7 -9 -25 -16 -38 -16 -19 0 -24 -4 -19 -16 3 -9 6 -18 6
-20 0 -2 11 -4 23 -4 31 0 57 29 48 53 -6 17 -8 17 -20 3z"/>
<path d="M3322 1478 c-17 -17 -15 -28 7 -28 10 0 24 -7 31 -15 18 -22 30 -18
30 8 0 27 -17 47 -40 47 -9 0 -21 -5 -28 -12z"/>
<path d="M680 1425 c-7 -8 -23 -15 -37 -15 -21 0 -22 -3 -13 -20 16 -29 58
-26 72 5 14 32 -2 54 -22 30z"/>
<path d="M3290 1410 c-9 -17 -8 -20 14 -20 13 0 26 -7 30 -15 7 -20 22 -19 30
1 8 21 -20 54 -45 54 -10 0 -23 -9 -29 -20z"/>
<path d="M704 1365 c-4 -8 -17 -15 -30 -15 -22 0 -23 -3 -14 -20 6 -11 19 -20
29 -20 25 0 53 33 45 54 -8 20 -23 21 -30 1z"/>
<path d="M3260 1350 c-9 -18 -8 -20 15 -20 14 0 28 -7 31 -15 8 -19 20 -19 28
1 17 44 -52 76 -74 34z"/>
<path d="M740 1322 c0 -7 -13 -18 -29 -23 -37 -13 -31 -39 10 -39 38 0 59 35
35 58 -11 11 -16 12 -16 4z"/>
<path d="M3226 1295 c-4 -10 1 -15 14 -15 11 0 25 -9 32 -20 7 -11 16 -20 19
-20 13 0 19 32 9 51 -13 23 -65 26 -74 4z"/>
<path d="M766 1255 c-3 -8 -15 -15 -26 -15 -32 0 -21 -34 12 -38 30 -4 52 25
42 52 -8 20 -20 20 -28 1z"/>
<path d="M3202 1248 c-17 -17 -15 -28 7 -28 11 0 26 -9 33 -19 13 -19 14 -19
25 -2 23 37 -34 80 -65 49z"/>
<path d="M797 1200 c-9 -11 -24 -20 -32 -20 -17 0 -19 -12 -4 -27 18 -18 59
-3 65 24 9 34 -8 47 -29 23z"/>
<path d="M3166 1194 c-9 -23 -8 -24 13 -24 11 0 23 -9 26 -21 5 -16 10 -18 21
-8 20 17 17 36 -8 53 -29 20 -44 20 -52 0z"/>
<path d="M843 1137 c-4 -8 -16 -17 -26 -20 -26 -10 -16 -31 16 -35 18 -2 29 3
37 18 19 35 -7 70 -27 37z"/>
<path d="M3114 1128 c-4 -6 -2 -14 5 -16 8 -3 22 -13 33 -24 27 -27 46 -9 30
27 -12 27 -55 35 -68 13z"/>
<path d="M886 1092 c-4 -12 -16 -24 -27 -27 -27 -9 -19 -29 14 -33 21 -3 30 3
39 23 9 21 9 29 -4 41 -15 15 -17 14 -22 -4z"/>
<path d="M3077 1083 c-12 -11 -8 -21 12 -28 11 -3 23 -15 27 -27 5 -18 7 -19
22 -4 22 22 2 66 -31 66 -13 0 -27 -3 -30 -7z"/>
<path d="M925 1041 c-3 -11 -15 -23 -27 -27 -18 -5 -19 -7 -4 -22 12 -13 20
-13 41 -4 28 13 33 43 11 61 -11 10 -16 8 -21 -8z"/>
<path d="M3041 1037 c-16 -16 -14 -24 9 -30 11 -3 20 -12 20 -21 0 -20 14 -21
29 -2 25 30 -31 80 -58 53z"/>
<path d="M970 994 c0 -9 -9 -18 -20 -21 -24 -6 -25 -16 -6 -32 30 -25 80 31
53 58 -16 16 -27 14 -27 -5z"/>
<path d="M2991 986 c-10 -11 -8 -16 8 -21 11 -3 23 -15 26 -26 5 -16 10 -18
21 -8 18 15 18 34 -2 53 -19 20 -38 20 -53 2z"/>
<path d="M1012 945 c-6 -14 -19 -25 -28 -25 -13 0 -14 -3 -4 -15 7 -8 20 -15
29 -15 36 0 55 46 28 69 -11 8 -16 5 -25 -14z"/>
<path d="M2951 946 c-7 -9 -5 -17 9 -29 11 -9 20 -24 20 -33 0 -16 2 -16 19 0
14 13 17 24 12 39 -10 26 -46 40 -60 23z"/>
<path d="M1061 908 c-5 -14 -17 -28 -27 -32 -16 -6 -16 -8 -2 -22 12 -13 20
-14 36 -5 29 15 38 50 18 69 -14 14 -16 13 -25 -10z"/>
<path d="M2900 905 c-9 -10 -7 -16 9 -24 11 -6 21 -20 23 -32 3 -17 5 -18 21
-7 15 11 16 19 8 39 -11 30 -45 43 -61 24z"/>
<path d="M1111 867 c-5 -13 -17 -27 -27 -31 -16 -6 -16 -8 -1 -23 15 -15 18
-15 41 1 29 18 34 47 11 66 -12 10 -16 8 -24 -13z"/>
<path d="M2852 867 c-9 -10 -6 -17 8 -30 11 -9 20 -24 20 -32 0 -12 4 -13 19
-5 22 11 18 47 -7 68 -20 15 -27 15 -40 -1z"/>
<path d="M1164 834 c-4 -11 -15 -26 -25 -34 -19 -15 -19 -15 0 -27 39 -25 82
37 46 67 -12 10 -16 9 -21 -6z"/>
<path d="M2800 830 c-13 -9 -13 -12 3 -24 9 -7 17 -20 17 -28 0 -22 11 -29 27
-17 19 17 16 57 -6 69 -24 12 -22 12 -41 0z"/>
<path d="M1220 801 c0 -6 -10 -21 -21 -32 -17 -17 -19 -23 -8 -30 32 -20 63 3
57 42 -3 23 -28 40 -28 20z"/>
<path d="M2744 796 c-17 -13 -16 -14 4 -25 12 -6 22 -21 22 -31 0 -24 13 -26
30 -5 26 32 -22 85 -56 61z"/>
<path d="M1270 761 c0 -10 -10 -25 -22 -33 l-22 -15 20 -11 c41 -22 84 34 52
66 -17 17 -28 15 -28 -7z"/>
<path d="M2686 761 c-3 -5 1 -14 9 -21 8 -7 15 -21 15 -32 0 -28 34 -19 38 10
2 13 -2 30 -8 38 -14 16 -46 19 -54 5z"/>
<path d="M1320 726 c0 -13 -8 -27 -17 -31 -17 -6 -17 -7 1 -20 14 -11 22 -11
37 -2 23 14 25 62 3 71 -23 9 -24 8 -24 -18z"/>
<path d="M2630 730 c-12 -8 -12 -10 3 -16 10 -3 17 -17 17 -31 0 -32 34 -28
38 5 6 40 -25 63 -58 42z"/>
<path d="M1380 696 c0 -13 -8 -27 -17 -31 -17 -6 -17 -7 1 -21 17 -12 22 -12
38 3 22 20 24 59 2 67 -23 9 -24 8 -24 -18z"/>
<path d="M2570 702 c0 -5 7 -15 15 -22 8 -7 15 -21 15 -32 0 -23 19 -20 34 5
15 24 -4 51 -38 55 -14 2 -26 -1 -26 -6z"/>
<path d="M1440 679 c0 -12 -7 -31 -16 -41 -16 -16 -15 -18 1 -24 43 -17 76 54
36 76 -18 9 -21 8 -21 -11z"/>
<path d="M2522 681 c-10 -6 -10 -11 3 -21 11 -9 14 -22 10 -37 -6 -26 -2 -28
26 -13 24 13 25 42 1 63 -21 19 -22 20 -40 8z"/>
<path d="M1500 654 c0 -10 -7 -25 -16 -35 -14 -16 -14 -18 4 -28 25 -13 55 17
50 51 -4 27 -38 38 -38 12z"/>
<path d="M2463 663 c-10 -4 -10 -9 1 -24 8 -11 12 -29 9 -40 -6 -22 16 -26 35
-7 17 17 15 42 -6 61 -20 18 -20 18 -39 10z"/>
<path d="M1572 626 c1 -13 -3 -31 -11 -39 -11 -14 -11 -18 3 -23 25 -9 58 24
50 50 -12 39 -47 49 -42 12z"/>
<path d="M2386 623 c4 -10 8 -28 8 -41 1 -31 40 -26 44 6 4 29 -14 52 -40 52
-15 0 -18 -4 -12 -17z"/>
<path d="M1633 608 c4 -13 0 -29 -9 -39 -13 -15 -13 -17 5 -22 12 -3 27 3 37
14 14 16 15 24 6 44 -15 32 -47 35 -39 3z"/>
<path d="M2327 621 c-17 -6 -17 -8 -3 -20 10 -9 14 -22 10 -37 -9 -34 23 -32
38 1 10 22 9 29 -8 44 -12 12 -26 16 -37 12z"/>
<path d="M1696 591 c4 -16 1 -32 -5 -35 -17 -11 -13 -26 8 -26 44 0 55 66 14
81 -20 7 -22 6 -17 -20z"/>
<path d="M2260 591 c5 -11 10 -29 10 -40 0 -30 36 -28 42 3 6 30 -13 56 -41
56 -18 0 -20 -3 -11 -19z"/>
<path d="M1757 581 c3 -10 0 -28 -6 -40 -10 -19 -9 -21 11 -21 30 0 48 28 37
58 -11 28 -50 31 -42 3z"/>
<path d="M2190 591 c0 -6 5 -13 11 -16 6 -4 7 -19 4 -36 -6 -27 -5 -28 17 -20
26 9 36 45 18 67 -14 16 -50 19 -50 5z"/>
<path d="M1821 568 c1 -13 -2 -31 -6 -40 -5 -14 -2 -18 14 -18 25 0 42 29 34
58 -8 30 -43 30 -42 0z"/>
<path d="M1884 565 c4 -15 2 -33 -4 -40 -8 -9 -5 -14 10 -18 16 -4 24 1 33 20
13 28 1 56 -28 61 -15 3 -17 -1 -11 -23z"/>
<path d="M2074 545 c1 -50 17 -57 42 -20 12 18 11 24 -2 43 -25 37 -41 27 -40
-23z"/>
<path d="M2130 583 c0 -5 4 -15 9 -22 6 -9 6 -22 0 -33 -8 -15 -6 -18 14 -18
28 0 42 32 26 62 -9 17 -49 26 -49 11z"/>
<path d="M1945 540 c-1 -32 3 -40 17 -40 25 0 41 35 28 60 -6 11 -18 20 -28
20 -13 0 -17 -9 -17 -40z"/>
<path d="M2010 560 c8 -14 8 -26 0 -40 -9 -17 -8 -20 8 -20 28 0 45 25 38 55
-5 18 -13 25 -32 25 -22 0 -23 -2 -14 -20z"/>
<path d="M1446 3801 c-10 -16 5 -41 24 -41 23 0 32 13 24 34 -7 17 -39 22 -48
7z"/>
<path d="M1356 3771 c-8 -13 4 -41 18 -41 22 0 37 17 30 33 -7 18 -39 23 -48
8z"/>
<path d="M1273 3742 c-12 -8 -7 -52 6 -52 19 0 42 27 35 43 -7 18 -21 21 -41
9z"/>
<path d="M1181 3701 c-10 -7 -11 -13 -2 -29 10 -18 15 -20 36 -10 20 9 22 14
14 29 -11 21 -26 24 -48 10z"/>
<path d="M2796 3683 c-5 -11 -1 -22 10 -30 24 -18 32 -16 39 8 11 35 -37 55
-49 22z"/>
<path d="M2880 3640 c-8 -16 -6 -21 12 -31 18 -10 24 -8 34 6 11 15 11 20 -4
31 -23 18 -30 17 -42 -6z"/>
<path d="M2960 3590 c-8 -16 -6 -21 12 -31 18 -10 24 -8 35 7 12 16 11 21 -4
31 -23 18 -31 16 -43 -7z"/>
<path d="M3043 3540 c-11 -17 -10 -21 8 -31 17 -9 25 -8 37 5 15 14 14 17 -3
31 -26 19 -28 19 -42 -5z"/>
<path d="M887 3523 c-13 -15 -13 -21 -3 -36 13 -16 14 -16 36 1 21 17 21 18 2
35 -18 16 -20 16 -35 0z"/>
<path d="M3119 3484 c-11 -14 -10 -18 6 -30 16 -12 21 -12 34 0 12 12 12 18 1
30 -16 20 -24 20 -41 0z"/>
<path d="M812 3468 c-16 -16 -15 -33 1 -47 21 -17 55 23 37 44 -15 18 -22 19
-38 3z"/>
<path d="M3169 3444 c-11 -14 -10 -18 6 -30 16 -12 21 -12 34 0 12 12 12 18 1
30 -16 20 -24 20 -41 0z"/>
<path d="M736 3402 c-15 -18 -15 -20 2 -35 18 -16 20 -16 35 0 13 15 13 21 3
36 -16 21 -19 21 -40 -1z"/>
<path d="M3240 3385 c-10 -12 -10 -18 0 -30 16 -19 39 -19 46 0 6 15 -11 45
-26 45 -4 0 -13 -7 -20 -15z"/>
<path d="M670 3334 c-11 -12 -10 -18 3 -32 16 -15 18 -15 34 0 13 14 14 20 3
32 -7 9 -16 16 -20 16 -4 0 -13 -7 -20 -16z"/>
<path d="M3310 3314 c-11 -12 -10 -18 3 -32 16 -15 18 -15 34 0 13 14 14 20 3
32 -7 9 -16 16 -20 16 -4 0 -13 -7 -20 -16z"/>
<path d="M3377 3252 c-16 -18 -16 -20 1 -35 18 -16 20 -16 35 1 16 18 16 20
-1 35 -18 16 -20 16 -35 -1z"/>
<path d="M470 3105 c-15 -18 -7 -45 13 -45 14 0 44 28 36 33 -2 1 -11 8 -20
15 -13 10 -19 9 -29 -3z"/>
<path d="M411 3019 c-11 -18 -11 -23 1 -30 19 -13 29 -11 43 8 11 14 10 20 -4
30 -22 17 -24 16 -40 -8z"/>
<path d="M3566 3007 c-15 -11 -17 -17 -7 -35 10 -18 15 -20 31 -12 23 12 25
20 7 43 -10 15 -15 16 -31 4z"/>
<path d="M3615 2926 c-14 -10 -16 -16 -6 -34 10 -18 15 -20 31 -12 23 12 24
19 6 42 -11 15 -16 15 -31 4z"/>
<path d="M316 2854 c-8 -22 -8 -22 14 -34 16 -8 21 -6 31 11 9 17 8 23 -2 30
-21 13 -36 11 -43 -7z"/>
<path d="M3651 2841 c-10 -7 -11 -13 -2 -30 13 -23 19 -25 40 -12 8 5 11 16 6
30 -7 22 -21 26 -44 12z"/>
<path d="M290 2800 c-6 -11 -8 -25 -5 -30 10 -16 42 -12 49 6 8 22 8 22 -14
34 -15 8 -21 6 -30 -10z"/>
<path d="M3687 2753 c-3 -5 -1 -18 4 -31 7 -20 12 -21 30 -12 12 7 18 17 15
27 -3 8 -6 17 -6 19 0 7 -39 4 -43 -3z"/>
<path d="M251 2708 c-9 -23 1 -38 26 -38 18 0 27 41 12 51 -22 13 -29 11 -38
-13z"/>
<path d="M217 2618 c-6 -22 6 -38 29 -38 17 0 26 43 11 52 -21 13 -34 9 -40
-14z"/>
<path d="M165 2440 c-8 -26 1 -40 26 -40 24 0 27 45 3 54 -22 8 -22 8 -29 -14z"/>
<path d="M3827 2332 c-27 -6 -18 -46 11 -50 18 -3 22 1 22 22 0 28 -7 34 -33
28z"/>
<path d="M3841 2141 c-19 -12 -4 -51 20 -51 14 0 19 7 19 30 0 30 -13 37 -39
21z"/>
<path d="M118 2085 c-3 -14 -2 -25 3 -25 4 0 14 -3 23 -6 13 -5 16 1 16 25 0
40 -35 45 -42 6z"/>
<path d="M3840 2025 c0 -20 5 -25 25 -25 20 0 25 5 25 25 0 20 -5 25 -25 25
-20 0 -25 -5 -25 -25z"/>
<path d="M110 1985 c0 -20 5 -25 25 -25 20 0 25 5 25 25 0 20 -5 25 -25 25
-20 0 -25 -5 -25 -25z"/>
<path d="M3840 1966 c0 -27 38 -44 47 -20 8 22 -5 44 -27 44 -14 0 -20 -7 -20
-24z"/>
<path d="M120 1891 c0 -25 3 -28 26 -23 17 3 23 9 20 19 -3 8 -6 19 -6 24 0 5
-9 9 -20 9 -15 0 -20 -7 -20 -29z"/>
<path d="M3830 1865 c0 -20 5 -25 25 -25 20 0 25 5 25 25 0 20 -5 25 -25 25
-20 0 -25 -5 -25 -25z"/>
<path d="M3826 1784 c-10 -26 -7 -31 19 -36 22 -5 25 -2 25 23 0 22 -5 29 -19
29 -10 0 -22 -7 -25 -16z"/>
<path d="M3813 1694 c-8 -22 5 -46 24 -42 27 5 29 44 3 51 -13 3 -23 0 -27 -9z"/>
<path d="M215 1420 c-3 -5 -4 -19 0 -29 8 -27 47 -16 43 13 -3 23 -32 34 -43
16z"/>
<path d="M3735 1389 c-7 -22 10 -42 30 -36 16 6 18 39 3 48 -20 13 -26 11 -33
-12z"/>
<path d="M246 1332 c-5 -9 3 -52 11 -52 20 0 40 23 36 40 -5 20 -37 28 -47 12z"/>
<path d="M3700 1299 c-13 -24 -13 -24 17 -33 16 -5 23 -2 28 15 5 14 2 25 -6
30 -21 13 -27 11 -39 -12z"/>
<path d="M293 1253 c-15 -6 -17 -39 -3 -48 6 -3 19 -4 30 0 16 5 17 10 8 31
-12 25 -14 26 -35 17z"/>
<path d="M3662 1215 c-10 -21 -8 -26 10 -36 16 -9 22 -8 29 2 14 22 11 37 -10
48 -15 8 -20 6 -29 -14z"/>
<path d="M317 1189 c-13 -8 -15 -14 -7 -30 12 -21 18 -23 39 -10 8 5 11 16 6
30 -7 24 -12 25 -38 10z"/>
<path d="M3619 1129 c-11 -22 0 -38 28 -39 18 0 27 41 12 51 -21 13 -27 11
-40 -12z"/>
<path d="M365 1107 c-15 -11 -16 -17 -6 -36 11 -19 15 -20 29 -9 9 7 19 13 21
15 1 1 -3 11 -11 22 -13 18 -17 19 -33 8z"/>
<path d="M404 1015 c-4 -8 -1 -22 6 -30 18 -21 52 2 39 27 -12 22 -37 24 -45
3z"/>
<path d="M465 947 c-15 -11 -16 -17 -6 -36 11 -19 15 -20 29 -9 9 7 19 13 21
15 1 1 -3 11 -11 22 -13 18 -17 19 -33 8z"/>
<path d="M518 869 c-15 -8 -16 -13 -5 -29 14 -23 30 -25 45 -7 7 8 7 17 -2 30
-15 20 -15 20 -38 6z"/>
<path d="M3427 842 c-13 -14 -14 -21 -5 -30 16 -16 33 -15 48 3 10 12 10 18 0
30 -16 19 -23 19 -43 -3z"/>
<path d="M3366 772 c-15 -18 -15 -20 2 -35 18 -16 20 -16 37 3 10 11 16 21 14
23 -2 1 -11 8 -20 15 -13 10 -19 8 -33 -6z"/>
<path d="M3300 704 c-11 -12 -10 -18 3 -32 16 -15 18 -15 34 0 13 14 14 20 3
32 -7 9 -16 16 -20 16 -4 0 -13 -7 -20 -16z"/>
<path d="M3230 634 c-11 -12 -10 -18 3 -32 16 -15 18 -15 33 0 19 18 12 48 -9
48 -8 0 -20 -7 -27 -16z"/>
<path d="M757 612 c-13 -14 -14 -21 -5 -30 16 -16 33 -15 47 1 8 11 7 18 -7
31 -18 15 -20 15 -35 -2z"/>
<path d="M3160 574 c-11 -12 -10 -18 3 -32 16 -15 18 -15 34 0 13 14 14 20 3
32 -7 9 -16 16 -20 16 -4 0 -13 -7 -20 -16z"/>
<path d="M832 558 c-17 -17 -15 -31 8 -45 17 -11 21 -10 31 8 6 11 9 22 7 23
-2 1 -10 7 -19 14 -12 9 -18 9 -27 0z"/>
<path d="M3110 534 c-11 -12 -10 -18 3 -32 16 -15 18 -15 34 0 13 14 14 20 3
32 -7 9 -16 16 -20 16 -4 0 -13 -7 -20 -16z"/>
<path d="M903 490 c-11 -17 -10 -21 9 -31 18 -10 24 -8 34 6 11 15 11 20 -4
31 -23 18 -25 17 -39 -6z"/>
<path d="M3032 477 c-7 -8 -7 -17 2 -29 12 -16 15 -16 35 -2 17 13 20 19 10
30 -14 17 -33 18 -47 1z"/>
<path d="M982 440 c-9 -14 -8 -21 3 -30 18 -15 45 -6 45 14 0 9 -8 20 -18 25
-14 7 -21 5 -30 -9z"/>
<path d="M2951 427 c-8 -10 -7 -18 2 -32 12 -15 16 -16 35 -4 16 10 18 17 11
31 -11 21 -32 23 -48 5z"/>
<path d="M2871 381 c-10 -7 -11 -13 -2 -30 10 -18 15 -19 32 -10 23 12 22 42
-1 46 -8 2 -21 -1 -29 -6z"/>
<path d="M1257 303 c-13 -12 -7 -32 13 -43 16 -8 21 -6 31 11 9 17 8 23 -2 30
-17 10 -33 11 -42 2z"/>
<path d="M1346 273 c-13 -14 -5 -42 15 -48 24 -8 26 -7 31 19 3 18 -33 41 -46
29z"/>
<path d="M2598 263 c-19 -5 -23 -20 -10 -40 8 -13 52 -7 52 7 0 15 -12 40 -19
39 -3 -1 -14 -3 -23 -6z"/>
<path d="M1436 243 c-13 -14 -5 -42 15 -48 24 -8 26 -7 31 19 3 18 -33 41 -46
29z"/>
<path d="M1527 213 c-4 -3 -7 -15 -7 -25 0 -26 46 -25 53 1 6 24 -29 42 -46
24z"/>
<path d="M2402 188 c3 -24 25 -33 46 -20 20 13 3 42 -25 42 -20 0 -24 -4 -21
-22z"/>
<path d="M2310 165 c0 -26 7 -29 34 -19 27 10 20 44 -9 44 -20 0 -25 -5 -25
-25z"/>
<path d="M1868 146 c-5 -23 -2 -26 23 -26 22 0 29 5 29 20 0 11 -4 20 -9 20
-5 0 -16 3 -24 6 -10 3 -16 -3 -19 -20z"/>
<path d="M1960 135 c0 -20 5 -25 25 -25 20 0 25 5 25 25 0 20 -5 25 -25 25
-20 0 -25 -5 -25 -25z"/>
</g>
</svg>
