<svg width="224" height="444" xmlns="http://www.w3.org/2000/svg"><title>grid</title><title>background</title><path fill="none" d="M-1-1h226v446H-1z"/><g><title>Layer 1</title><g opacity=".8" fill-rule="evenodd" fill="none"><path d="M1123-112v8356.65M899-112v8356.65M675-112v8356.65M451-112v8356.65M227-112v8356.65M3-112v8356.65" stroke="#333B3F" opacity=".4"/><path d="M-3559 8217h8356.65M-3559 7995h8356.65M-3559 7773h8356.65M-3559 7551h8356.65M-3559 7329h8356.65M-3559 7107h8356.65M-3559 6885h8356.65M-3559 6663h8356.65M-3559 6441h8356.65M-3559 6219h8356.65M-3559 5997h8356.65M-3559 5775h8356.65M-3559 5553h8356.65M-3559 5331h8356.65M-3559 5109h8356.65M-3559 4887h8356.65M-3559 4665h8356.65M-3559 4443h8356.65M-3559 4221h8356.65M-3559 3999h8356.65M-3559 3777h8356.65M-3559 3555h8356.65M-3559 3333h8356.65M-3559 3111h8356.65M-3559 2889h8356.65M-3559 2667h8356.65M-3559 2445h8356.65M-3559 2223h8356.65M-3559 2001h8356.65M-3559 1779h8356.65M-3559 1557h8356.65M-3559 1335h8356.65M-3559 1113h8356.65M-3559 891h8356.65M-3559 669h8356.65M-3559 447h8356.65M-3559 225h8356.65M-3559 3h8356.65" stroke="#333B3F" opacity=".405"/><g fill="#92C6FF" opacity=".6"><circle r="3" cy="5331" cx="1123"/><circle r="3" cy="5331" cx="899"/><circle r="3" cy="5331" cx="675"/><circle r="3" cy="5331" cx="451"/><circle r="3" cy="5331" cx="227"/><circle r="3" cy="5331" cx="3"/><circle r="3" cy="5109" cx="1123"/><circle r="3" cy="5109" cx="899"/><circle r="3" cy="5109" cx="675"/><circle r="3" cy="5109" cx="451"/><circle r="3" cy="5109" cx="227"/><circle r="3" cy="5109" cx="3"/><circle r="3" cy="4887" cx="1123"/><circle r="3" cy="4887" cx="899"/><circle r="3" cy="4887" cx="675"/><circle r="3" cy="4887" cx="451"/><circle r="3" cy="4887" cx="227"/><circle r="3" cy="4887" cx="3"/><circle r="3" cy="4665" cx="1123"/><circle r="3" cy="4665" cx="899"/><circle r="3" cy="4665" cx="675"/><circle r="3" cy="4665" cx="451"/><circle r="3" cy="4665" cx="227"/><circle r="3" cy="4665" cx="3"/><circle r="3" cy="4443" cx="1123"/><circle r="3" cy="4443" cx="899"/><circle r="3" cy="4443" cx="675"/><circle r="3" cy="4443" cx="451"/><circle r="3" cy="4443" cx="227"/><circle r="3" cy="4443" cx="3"/><g><circle r="3" cy="4221" cx="1123"/><circle r="3" cy="4221" cx="899"/><circle r="3" cy="4221" cx="675"/><circle r="3" cy="4221" cx="451"/><circle r="3" cy="4221" cx="227"/><circle r="3" cy="4221" cx="3"/></g><g><circle r="3" cy="3999" cx="1123"/><circle r="3" cy="3999" cx="899"/><circle r="3" cy="3999" cx="675"/><circle r="3" cy="3999" cx="451"/><circle r="3" cy="3999" cx="227"/><circle r="3" cy="3999" cx="3"/></g><g><circle r="3" cy="3777" cx="1123"/><circle r="3" cy="3777" cx="899"/><circle r="3" cy="3777" cx="675"/><circle r="3" cy="3777" cx="451"/><circle r="3" cy="3777" cx="227"/><circle r="3" cy="3777" cx="3"/></g><g><circle r="3" cy="3555" cx="1123"/><circle r="3" cy="3555" cx="899"/><circle r="3" cy="3555" cx="675"/><circle r="3" cy="3555" cx="451"/><circle r="3" cy="3555" cx="227"/><circle r="3" cy="3555" cx="3"/></g><g><circle r="3" cy="3333" cx="1123"/><circle r="3" cy="3333" cx="899"/><circle r="3" cy="3333" cx="675"/><circle r="3" cy="3333" cx="451"/><circle r="3" cy="3333" cx="227"/><circle r="3" cy="3333" cx="3"/></g><g><circle r="3" cy="3111" cx="1123"/><circle r="3" cy="3111" cx="899"/><circle r="3" cy="3111" cx="675"/><circle r="3" cy="3111" cx="451"/><circle r="3" cy="3111" cx="227"/><circle r="3" cy="3111" cx="3"/></g><g><circle r="3" cy="2889" cx="1123"/><circle r="3" cy="2889" cx="899"/><circle r="3" cy="2889" cx="675"/><circle r="3" cy="2889" cx="451"/><circle r="3" cy="2889" cx="227"/><circle r="3" cy="2889" cx="3"/></g><g><circle r="3" cy="2667" cx="1123"/><circle r="3" cy="2667" cx="899"/><circle r="3" cy="2667" cx="675"/><circle r="3" cy="2667" cx="451"/><circle r="3" cy="2667" cx="227"/><circle r="3" cy="2667" cx="3"/></g><g><circle r="3" cy="2445" cx="1123"/><circle r="3" cy="2445" cx="899"/><circle r="3" cy="2445" cx="675"/><circle r="3" cy="2445" cx="451"/><circle r="3" cy="2445" cx="227"/><circle r="3" cy="2445" cx="3"/></g><g><circle r="3" cy="2223" cx="1123"/><circle r="3" cy="2223" cx="899"/><circle r="3" cy="2223" cx="675"/><circle r="3" cy="2223" cx="451"/><circle r="3" cy="2223" cx="227"/><circle r="3" cy="2223" cx="3"/></g><g><circle r="3" cy="2001" cx="1123"/><circle r="3" cy="2001" cx="899"/><circle r="3" cy="2001" cx="675"/><circle r="3" cy="2001" cx="451"/><circle r="3" cy="2001" cx="227"/><circle r="3" cy="2001" cx="3"/></g><g><circle r="3" cy="1779" cx="1123"/><circle r="3" cy="1779" cx="899"/><circle r="3" cy="1779" cx="675"/><circle r="3" cy="1779" cx="451"/><circle r="3" cy="1779" cx="227"/><circle r="3" cy="1779" cx="3"/></g><g><circle r="3" cy="1557" cx="1123"/><circle r="3" cy="1557" cx="899"/><circle r="3" cy="1557" cx="675"/><circle r="3" cy="1557" cx="451"/><circle r="3" cy="1557" cx="227"/><circle r="3" cy="1557" cx="3"/></g><g><circle r="3" cy="1335" cx="1123"/><circle r="3" cy="1335" cx="899"/><circle r="3" cy="1335" cx="675"/><circle r="3" cy="1335" cx="451"/><circle r="3" cy="1335" cx="227"/><circle r="3" cy="1335" cx="3"/></g><g><circle r="3" cy="1113" cx="1123"/><circle r="3" cy="1113" cx="899"/><circle r="3" cy="1113" cx="675"/><circle r="3" cy="1113" cx="451"/><circle r="3" cy="1113" cx="227"/><circle r="3" cy="1113" cx="3"/></g><g><circle r="3" cy="891" cx="1123"/><circle r="3" cy="891" cx="899"/><circle r="3" cy="891" cx="675"/><circle r="3" cy="891" cx="451"/><circle r="3" cy="891" cx="227"/><circle r="3" cy="891" cx="3"/></g><g><circle r="3" cy="669" cx="1123"/><circle r="3" cy="669" cx="899"/><circle r="3" cy="669" cx="675"/><circle r="3" cy="669" cx="451"/><circle r="3" cy="669" cx="227"/><circle r="3" cy="669" cx="3"/></g><g><circle r="3" cy="447" cx="1123"/><circle r="3" cy="447" cx="899"/><circle r="3" cy="447" cx="675"/><circle r="3" cy="447" cx="451"/><circle r="3" cy="447" cx="227"/><circle r="3" cy="447" cx="3"/></g><g><circle r="3" cy="225" cx="1123"/><circle r="3" cy="225" cx="899"/><circle r="3" cy="225" cx="675"/><circle r="3" cy="225" cx="451"/><circle r="3" cy="225" cx="227"/><circle r="3" cy="225" cx="3"/></g><g><circle r="3" cy="3" cx="1123"/><circle r="3" cy="3" cx="899"/><circle r="3" cy="3" cx="675"/><circle r="3" cy="3" cx="451"/><circle r="3" cy="3" cx="227"/><circle r="3" cy="3" cx="3"/></g></g></g></g></svg>